<?xml version="1.0" encoding="UTF-8" standalone="no"?>
<!DOCTYPE svg PUBLIC "-//W3C//DTD SVG 1.1//EN"
 "http://www.w3.org/Graphics/SVG/1.1/DTD/svg11.dtd">
<!-- Generated by graphviz version 2.43.0 (0)
 -->
<!-- Title: RegressionRAMDataHandle Pages: 1 -->
<svg width="196pt" height="577pt"
 viewBox="0.00 0.00 195.50 577.00" xmlns="http://www.w3.org/2000/svg" xmlns:xlink="http://www.w3.org/1999/xlink">
<g id="graph0" class="graph" transform="scale(1 1) rotate(0) translate(4 573)">
<title>RegressionRAMDataHandle</title>
<!-- Node1 -->
<g id="Node000001" class="node">
<title>Node1</title>
<g id="a_Node000001"><a xlink:title="A class to handle RAM data for regression tasks.">
<polygon fill="#999999" stroke="transparent" points="149,-244 0,-244 0,0 149,0 149,-244"/>
<text text-anchor="start" x="13" y="-232" font-family="Helvetica,sans-Serif" font-size="10.00">RegressionRAMDataHandle</text>
<text text-anchor="start" x="73" y="-217" font-family="Helvetica,sans-Serif" font-size="10.00"> </text>
<text text-anchor="start" x="4.5" y="-202" font-family="Helvetica,sans-Serif" font-size="10.00">+</text>
<text text-anchor="start" x="15.5" y="-202" font-family="Helvetica,sans-Serif" font-size="10.00">compare()</text>
<text text-anchor="start" x="4.5" y="-187" font-family="Helvetica,sans-Serif" font-size="10.00">+</text>
<text text-anchor="start" x="15.5" y="-187" font-family="Helvetica,sans-Serif" font-size="10.00">data()</text>
<text text-anchor="start" x="4.5" y="-172" font-family="Helvetica,sans-Serif" font-size="10.00">+</text>
<text text-anchor="start" x="15.5" y="-172" font-family="Helvetica,sans-Serif" font-size="10.00">data()</text>
<text text-anchor="start" x="4.5" y="-157" font-family="Helvetica,sans-Serif" font-size="10.00">+</text>
<text text-anchor="start" x="15.5" y="-157" font-family="Helvetica,sans-Serif" font-size="10.00">get()</text>
<text text-anchor="start" x="4.5" y="-142" font-family="Helvetica,sans-Serif" font-size="10.00">+</text>
<text text-anchor="start" x="15.5" y="-142" font-family="Helvetica,sans-Serif" font-size="10.00">get()</text>
<text text-anchor="start" x="4.5" y="-127" font-family="Helvetica,sans-Serif" font-size="10.00">+</text>
<text text-anchor="start" x="15.5" y="-127" font-family="Helvetica,sans-Serif" font-size="10.00">RegressionRAMDataHandle()</text>
<text text-anchor="start" x="4.5" y="-112" font-family="Helvetica,sans-Serif" font-size="10.00">+</text>
<text text-anchor="start" x="15.5" y="-112" font-family="Helvetica,sans-Serif" font-size="10.00">RegressionRAMDataHandle()</text>
<text text-anchor="start" x="4.5" y="-97" font-family="Helvetica,sans-Serif" font-size="10.00">+</text>
<text text-anchor="start" x="15.5" y="-97" font-family="Helvetica,sans-Serif" font-size="10.00">RegressionRAMDataHandle()</text>
<text text-anchor="start" x="4.5" y="-82" font-family="Helvetica,sans-Serif" font-size="10.00">+</text>
<text text-anchor="start" x="15.5" y="-82" font-family="Helvetica,sans-Serif" font-size="10.00">RegressionRAMDataHandle()</text>
<text text-anchor="start" x="4.5" y="-67" font-family="Helvetica,sans-Serif" font-size="10.00">+</text>
<text text-anchor="start" x="15.5" y="-67" font-family="Helvetica,sans-Serif" font-size="10.00">save()</text>
<text text-anchor="start" x="4.5" y="-52" font-family="Helvetica,sans-Serif" font-size="10.00">+</text>
<text text-anchor="start" x="15.5" y="-52" font-family="Helvetica,sans-Serif" font-size="10.00">set()</text>
<text text-anchor="start" x="4.5" y="-37" font-family="Helvetica,sans-Serif" font-size="10.00">+</text>
<text text-anchor="start" x="15.5" y="-37" font-family="Helvetica,sans-Serif" font-size="10.00">set()</text>
<text text-anchor="start" x="6" y="-22" font-family="Helvetica,sans-Serif" font-size="10.00">&#45;</text>
<text text-anchor="start" x="15.5" y="-22" font-family="Helvetica,sans-Serif" font-size="10.00">dataToRam()</text>
<text text-anchor="start" x="6" y="-7" font-family="Helvetica,sans-Serif" font-size="10.00">&#45;</text>
<text text-anchor="start" x="15.5" y="-7" font-family="Helvetica,sans-Serif" font-size="10.00">setData()</text>
<polygon fill="#666666" stroke="#666666" points="0.5,-227 0.5,-227 149.5,-227 149.5,-227 0.5,-227"/>
<polygon fill="#666666" stroke="#666666" points="0.5,-212 0.5,-212 149.5,-212 149.5,-212 0.5,-212"/>
<polygon fill="none" stroke="#666666" points="0,0 0,-244 149,-244 149,0 0,0"/>
</a>
</g>
</g>
<!-- Node2 -->
<g id="Node000002" class="node">
<title>Node2</title>
<g id="a_Node000002"><a xlink:title=" ">
<polygon fill="white" stroke="transparent" points="134.5,-366 14.5,-366 14.5,-291 134.5,-291 134.5,-366"/>
<text text-anchor="start" x="19.5" y="-353.5" font-family="Helvetica,sans-Serif" font-size="10.00">std::unordered_map</text>
<text text-anchor="start" x="19.5" y="-342.5" font-family="Helvetica,sans-Serif" font-size="10.00">&lt; int, regression_ram_t &gt;</text>
<text text-anchor="start" x="33.5" y="-327.5" font-family="Helvetica,sans-Serif" font-size="10.00">+</text>
<text text-anchor="start" x="59.5" y="-327.5" font-family="Helvetica,sans-Serif" font-size="10.00">elements</text>
<text text-anchor="start" x="33.5" y="-312.5" font-family="Helvetica,sans-Serif" font-size="10.00">+</text>
<text text-anchor="start" x="59.5" y="-312.5" font-family="Helvetica,sans-Serif" font-size="10.00">keys</text>
<text text-anchor="start" x="72.5" y="-297.5" font-family="Helvetica,sans-Serif" font-size="10.00"> </text>
<polygon fill="#666666" stroke="#666666" points="14.5,-337.5 14.5,-337.5 134.5,-337.5 134.5,-337.5 14.5,-337.5"/>
<polygon fill="#666666" stroke="#666666" points="14.5,-307.5 14.5,-307.5 57.5,-307.5 57.5,-307.5 14.5,-307.5"/>
<polygon fill="#666666" stroke="#666666" points="57.5,-307.5 57.5,-307.5 134.5,-307.5 134.5,-307.5 57.5,-307.5"/>
<polygon fill="none" stroke="#666666" points="14.5,-291 14.5,-366 134.5,-366 134.5,-291 14.5,-291"/>
</a>
</g>
</g>
<!-- Node2&#45;&gt;Node1 -->
<g id="edge1_Node000001_Node000002" class="edge">
<title>Node2&#45;&gt;Node1</title>
<g id="a_edge1_Node000001_Node000002"><a xlink:title=" ">
<path fill="none" stroke="#63b8ff" d="M74.5,-290.94C74.5,-280.67 74.5,-268.86 74.5,-256.37"/>
<polygon fill="none" stroke="#63b8ff" points="74.5,-256.21 70.5,-250.21 74.5,-244.21 78.5,-250.21 74.5,-256.21"/>
</a>
</g>
<text text-anchor="middle" x="95.5" y="-265" font-family="Helvetica,sans-Serif" font-size="10.00" fill="grey"> &#45;ramdata</text>
</g>
<!-- Node3 -->
<g id="Node000003" class="node">
<title>Node3</title>
<g id="a_Node000003"><a xlink:title=" ">
<polygon fill="white" stroke="transparent" points="123,-473 26,-473 26,-413 123,-413 123,-473"/>
<text text-anchor="start" x="31.5" y="-461" font-family="Helvetica,sans-Serif" font-size="10.00">std::unordered_map</text>
<text text-anchor="start" x="56.5" y="-450" font-family="Helvetica,sans-Serif" font-size="10.00">&lt; K, T &gt;</text>
<text text-anchor="start" x="73" y="-435" font-family="Helvetica,sans-Serif" font-size="10.00"> </text>
<text text-anchor="start" x="73" y="-420" font-family="Helvetica,sans-Serif" font-size="10.00"> </text>
<polygon fill="#666666" stroke="#666666" points="26.5,-445 26.5,-445 123.5,-445 123.5,-445 26.5,-445"/>
<polygon fill="#666666" stroke="#666666" points="26.5,-430 26.5,-430 123.5,-430 123.5,-430 26.5,-430"/>
<polygon fill="none" stroke="#666666" points="26,-413 26,-473 123,-473 123,-413 26,-413"/>
</a>
</g>
</g>
<!-- Node3&#45;&gt;Node2 -->
<g id="edge2_Node000002_Node000003" class="edge">
<title>Node3&#45;&gt;Node2</title>
<g id="a_edge2_Node000002_Node000003"><a xlink:title=" ">
<path fill="none" stroke="orange" d="M74.5,-402.69C74.5,-390.86 74.5,-377.93 74.5,-366.28"/>
<polygon fill="orange" stroke="orange" points="71,-402.74 74.5,-412.74 78,-402.74 71,-402.74"/>
</a>
</g>
<text text-anchor="middle" x="131" y="-387" font-family="Helvetica,sans-Serif" font-size="10.00" fill="grey"> &lt; int, regression_ram_t &gt;</text>
</g>
<!-- Node4 -->
<g id="Node000004" class="node">
<title>Node4</title>
<g id="a_Node000004"><a xlink:title=" ">
<polygon fill="white" stroke="transparent" points="56,-569 39,-569 39,-520 56,-520 56,-569"/>
<text text-anchor="start" x="44.5" y="-556.5" font-family="Helvetica,sans-Serif" font-size="10.00">K</text>
<text text-anchor="start" x="46" y="-541.5" font-family="Helvetica,sans-Serif" font-size="10.00"> </text>
<text text-anchor="start" x="46" y="-526.5" font-family="Helvetica,sans-Serif" font-size="10.00"> </text>
<polygon fill="#666666" stroke="#666666" points="39.5,-551.5 39.5,-551.5 56.5,-551.5 56.5,-551.5 39.5,-551.5"/>
<polygon fill="#666666" stroke="#666666" points="39.5,-536.5 39.5,-536.5 56.5,-536.5 56.5,-536.5 39.5,-536.5"/>
<polygon fill="none" stroke="#666666" points="39,-520 39,-569 56,-569 56,-520 39,-520"/>
</a>
</g>
</g>
<!-- Node4&#45;&gt;Node3 -->
<g id="edge3_Node000003_Node000004" class="edge">
<title>Node4&#45;&gt;Node3</title>
<g id="a_edge3_Node000003_Node000004"><a xlink:title=" ">
<path fill="none" stroke="#63b8ff" d="M45.54,-519.9C45.41,-510.74 46.02,-500.24 48.5,-491 49.11,-488.74 49.85,-486.47 50.68,-484.21"/>
<polygon fill="none" stroke="#63b8ff" points="50.71,-484.14 49.48,-477.03 55.56,-473.16 56.8,-480.26 50.71,-484.14"/>
</a>
</g>
<text text-anchor="middle" x="64" y="-494" font-family="Helvetica,sans-Serif" font-size="10.00" fill="grey"> +keys</text>
</g>
<!-- Node5 -->
<g id="Node000005" class="node">
<title>Node5</title>
<g id="a_Node000005"><a xlink:title=" ">
<polygon fill="white" stroke="transparent" points="110,-569 93,-569 93,-520 110,-520 110,-569"/>
<text text-anchor="start" x="98.5" y="-556.5" font-family="Helvetica,sans-Serif" font-size="10.00">T</text>
<text text-anchor="start" x="100" y="-541.5" font-family="Helvetica,sans-Serif" font-size="10.00"> </text>
<text text-anchor="start" x="100" y="-526.5" font-family="Helvetica,sans-Serif" font-size="10.00"> </text>
<polygon fill="#666666" stroke="#666666" points="93.5,-551.5 93.5,-551.5 110.5,-551.5 110.5,-551.5 93.5,-551.5"/>
<polygon fill="#666666" stroke="#666666" points="93.5,-536.5 93.5,-536.5 110.5,-536.5 110.5,-536.5 93.5,-536.5"/>
<polygon fill="none" stroke="#666666" points="93,-520 93,-569 110,-569 110,-520 93,-520"/>
</a>
</g>
</g>
<!-- Node5&#45;&gt;Node3 -->
<g id="edge4_Node000003_Node000005" class="edge">
<title>Node5&#45;&gt;Node3</title>
<g id="a_edge4_Node000003_Node000005"><a xlink:title=" ">
<path fill="none" stroke="#63b8ff" d="M95.1,-519.92C92.25,-509.4 88.8,-496.71 85.55,-484.73"/>
<polygon fill="none" stroke="#63b8ff" points="85.54,-484.68 80.11,-479.94 82.4,-473.1 87.83,-477.84 85.54,-484.68"/>
</a>
</g>
<text text-anchor="middle" x="114" y="-494" font-family="Helvetica,sans-Serif" font-size="10.00" fill="grey"> +elements</text>
</g>
</g>
</svg>
