<?xml version="1.0" encoding="UTF-8" standalone="no"?>
<!DOCTYPE svg PUBLIC "-//W3C//DTD SVG 1.1//EN"
 "http://www.w3.org/Graphics/SVG/1.1/DTD/svg11.dtd">
<!-- Generated by graphviz version 2.43.0 (0)
 -->
<!-- Title: RegressionWisard::predict Pages: 1 -->
<svg width="348pt" height="64pt"
 viewBox="0.00 0.00 348.00 64.00" xmlns="http://www.w3.org/2000/svg" xmlns:xlink="http://www.w3.org/1999/xlink">
<g id="graph0" class="graph" transform="scale(1 1) rotate(0) translate(4 60)">
<title>RegressionWisard::predict</title>
<!-- Node1 -->
<g id="Node000001" class="node">
<title>Node1</title>
<g id="a_Node000001"><a xlink:title="Faz a predição para uma entrada binária.">
<polygon fill="#999999" stroke="#666666" points="132,-37 0,-37 0,-18 132,-18 132,-37"/>
<text text-anchor="middle" x="66" y="-25" font-family="Helvetica,sans-Serif" font-size="10.00">RegressionWisard::predict</text>
</a>
</g>
</g>
<!-- Node2 -->
<g id="Node000002" class="node">
<title>Node2</title>
<g id="a_Node000002"><a xlink:href="classMean.html#a6c725db111881910fcf4df655debbbc7" target="_top" xlink:title="Calcula a média com base nos dados fornecidos.">
<polygon fill="white" stroke="#666666" points="297,-56 211,-56 211,-37 297,-37 297,-56"/>
<text text-anchor="middle" x="254" y="-44" font-family="Helvetica,sans-Serif" font-size="10.00">Mean::calculate</text>
</a>
</g>
</g>
<!-- Node1&#45;&gt;Node2 -->
<g id="edge1_Node000001_Node000002" class="edge">
<title>Node1&#45;&gt;Node2</title>
<g id="a_edge1_Node000001_Node000002"><a xlink:title=" ">
<path fill="none" stroke="#63b8ff" d="M132.05,-34.15C154.56,-36.44 179.48,-38.99 200.81,-41.17"/>
<polygon fill="#63b8ff" stroke="#63b8ff" points="200.67,-44.67 210.98,-42.21 201.38,-37.71 200.67,-44.67"/>
</a>
</g>
</g>
<!-- Node3 -->
<g id="Node000003" class="node">
<title>Node3</title>
<g id="a_Node000003"><a xlink:href="classRegressionWisard.html#a6a25655a9cb15452b468a13dc4ed2858" target="_top" xlink:title="Verifica o tamanho da entrada.">
<polygon fill="white" stroke="#666666" points="340,-19 168,-19 168,0 340,0 340,-19"/>
<text text-anchor="middle" x="254" y="-7" font-family="Helvetica,sans-Serif" font-size="10.00">RegressionWisard::checkEntrySize</text>
</a>
</g>
</g>
<!-- Node1&#45;&gt;Node3 -->
<g id="edge2_Node000001_Node000003" class="edge">
<title>Node1&#45;&gt;Node3</title>
<g id="a_edge2_Node000001_Node000003"><a xlink:title=" ">
<path fill="none" stroke="#63b8ff" d="M132.05,-21.2C140.34,-20.4 148.94,-19.57 157.58,-18.73"/>
<polygon fill="#63b8ff" stroke="#63b8ff" points="158.1,-22.2 167.71,-17.75 157.42,-15.23 158.1,-22.2"/>
</a>
</g>
</g>
</g>
</svg>
