<?xml version="1.0" encoding="UTF-8" standalone="no"?>
<!DOCTYPE svg PUBLIC "-//W3C//DTD SVG 1.1//EN"
 "http://www.w3.org/Graphics/SVG/1.1/DTD/svg11.dtd">
<!-- Generated by graphviz version 2.43.0 (0)
 -->
<!-- Title: Discriminator::rank Pages: 1 -->
<svg width="242pt" height="45pt"
 viewBox="0.00 0.00 242.00 45.00" xmlns="http://www.w3.org/2000/svg" xmlns:xlink="http://www.w3.org/1999/xlink">
<g id="graph0" class="graph" transform="scale(1 1) rotate(0) translate(4 41)">
<title>Discriminator::rank</title>
<!-- Node1 -->
<g id="Node000001" class="node">
<title>Node1</title>
<g id="a_Node000001"><a xlink:title="Ranks the given vector of boolean data.">
<polygon fill="#999999" stroke="#666666" points="99,-19 0,-19 0,0 99,0 99,-19"/>
<text text-anchor="middle" x="49.5" y="-7" font-family="Helvetica,sans-Serif" font-size="10.00">Discriminator::rank</text>
</a>
</g>
</g>
<!-- Node2 -->
<g id="Node000002" class="node">
<title>Node2</title>
<g id="a_Node000002"><a xlink:href="classDiscriminator.html#a76a9e6c46205fbb22e7c71fee3267582" target="_top" xlink:title="Ranks the given data.">
<polygon fill="white" stroke="#666666" points="234,-19 135,-19 135,0 234,0 234,-19"/>
<text text-anchor="middle" x="184.5" y="-7" font-family="Helvetica,sans-Serif" font-size="10.00">Discriminator::rank</text>
</a>
</g>
</g>
<!-- Node1&#45;&gt;Node2 -->
<g id="edge1_Node000001_Node000002" class="edge">
<title>Node1&#45;&gt;Node2</title>
<g id="a_edge1_Node000001_Node000002"><a xlink:title=" ">
<path fill="none" stroke="#63b8ff" d="M99.27,-9.5C107.49,-9.5 116.1,-9.5 124.55,-9.5"/>
<polygon fill="#63b8ff" stroke="#63b8ff" points="124.74,-13 134.74,-9.5 124.74,-6 124.74,-13"/>
</a>
</g>
</g>
<!-- Node2&#45;&gt;Node2 -->
<g id="edge2_Node000002_Node000002" class="edge">
<title>Node2&#45;&gt;Node2</title>
<g id="a_edge2_Node000002_Node000002"><a xlink:title=" ">
<path fill="none" stroke="#63b8ff" d="M163.85,-19.08C153.8,-27.73 160.68,-37 184.5,-37 199.76,-37 208.07,-33.2 209.43,-28.19"/>
<polygon fill="#63b8ff" stroke="#63b8ff" points="212.57,-26.65 205.15,-19.08 206.23,-29.62 212.57,-26.65"/>
</a>
</g>
</g>
</g>
</svg>
