<?xml version="1.0" encoding="UTF-8" standalone="no"?>
<!DOCTYPE svg PUBLIC "-//W3C//DTD SVG 1.1//EN"
 "http://www.w3.org/Graphics/SVG/1.1/DTD/svg11.dtd">
<!-- Generated by graphviz version 2.43.0 (0)
 -->
<!-- Title: RegressionWisard Pages: 1 -->
<svg width="420pt" height="1107pt"
 viewBox="0.00 0.00 420.00 1107.00" xmlns="http://www.w3.org/2000/svg" xmlns:xlink="http://www.w3.org/1999/xlink">
<g id="graph0" class="graph" transform="scale(1 1) rotate(0) translate(4 1103)">
<title>RegressionWisard</title>
<!-- Node1 -->
<g id="Node000001" class="node">
<title>Node1</title>
<g id="a_Node000001"><a xlink:title="Classe para um modelo de regressão utilizando Wisard.">
<polygon fill="#999999" stroke="transparent" points="238,-349 126,-349 126,0 238,0 238,-349"/>
<text text-anchor="start" x="141.5" y="-336.5" font-family="Helvetica,sans-Serif" font-size="10.00">RegressionWisard</text>
<text text-anchor="start" x="131.5" y="-321.5" font-family="Helvetica,sans-Serif" font-size="10.00">&#45;</text>
<text text-anchor="start" x="141" y="-321.5" font-family="Helvetica,sans-Serif" font-size="10.00">addressSize</text>
<text text-anchor="start" x="131.5" y="-306.5" font-family="Helvetica,sans-Serif" font-size="10.00">&#45;</text>
<text text-anchor="start" x="141" y="-306.5" font-family="Helvetica,sans-Serif" font-size="10.00">completeAddressing</text>
<text text-anchor="start" x="131.5" y="-291.5" font-family="Helvetica,sans-Serif" font-size="10.00">&#45;</text>
<text text-anchor="start" x="141" y="-291.5" font-family="Helvetica,sans-Serif" font-size="10.00">entrySize</text>
<text text-anchor="start" x="131.5" y="-276.5" font-family="Helvetica,sans-Serif" font-size="10.00">&#45;</text>
<text text-anchor="start" x="141" y="-276.5" font-family="Helvetica,sans-Serif" font-size="10.00">minOne</text>
<text text-anchor="start" x="131.5" y="-261.5" font-family="Helvetica,sans-Serif" font-size="10.00">&#45;</text>
<text text-anchor="start" x="141" y="-261.5" font-family="Helvetica,sans-Serif" font-size="10.00">minZero</text>
<text text-anchor="start" x="131.5" y="-246.5" font-family="Helvetica,sans-Serif" font-size="10.00">&#45;</text>
<text text-anchor="start" x="141" y="-246.5" font-family="Helvetica,sans-Serif" font-size="10.00">numberOfTrainings</text>
<text text-anchor="start" x="131.5" y="-231.5" font-family="Helvetica,sans-Serif" font-size="10.00">&#45;</text>
<text text-anchor="start" x="141" y="-231.5" font-family="Helvetica,sans-Serif" font-size="10.00">orderedMapping</text>
<text text-anchor="start" x="131.5" y="-216.5" font-family="Helvetica,sans-Serif" font-size="10.00">&#45;</text>
<text text-anchor="start" x="141" y="-216.5" font-family="Helvetica,sans-Serif" font-size="10.00">steps</text>
<text text-anchor="start" x="130" y="-201.5" font-family="Helvetica,sans-Serif" font-size="10.00">+</text>
<text text-anchor="start" x="141" y="-201.5" font-family="Helvetica,sans-Serif" font-size="10.00">applyFit()</text>
<text text-anchor="start" x="130" y="-186.5" font-family="Helvetica,sans-Serif" font-size="10.00">+</text>
<text text-anchor="start" x="141" y="-186.5" font-family="Helvetica,sans-Serif" font-size="10.00">calculateFit()</text>
<text text-anchor="start" x="130" y="-171.5" font-family="Helvetica,sans-Serif" font-size="10.00">+</text>
<text text-anchor="start" x="141" y="-171.5" font-family="Helvetica,sans-Serif" font-size="10.00">predict()</text>
<text text-anchor="start" x="130" y="-156.5" font-family="Helvetica,sans-Serif" font-size="10.00">+</text>
<text text-anchor="start" x="141" y="-156.5" font-family="Helvetica,sans-Serif" font-size="10.00">predict()</text>
<text text-anchor="start" x="130" y="-141.5" font-family="Helvetica,sans-Serif" font-size="10.00">+</text>
<text text-anchor="start" x="141" y="-141.5" font-family="Helvetica,sans-Serif" font-size="10.00">RegressionWisard()</text>
<text text-anchor="start" x="130" y="-126.5" font-family="Helvetica,sans-Serif" font-size="10.00">+</text>
<text text-anchor="start" x="141" y="-126.5" font-family="Helvetica,sans-Serif" font-size="10.00">RegressionWisard()</text>
<text text-anchor="start" x="130" y="-111.5" font-family="Helvetica,sans-Serif" font-size="10.00">+</text>
<text text-anchor="start" x="141" y="-111.5" font-family="Helvetica,sans-Serif" font-size="10.00">RegressionWisard()</text>
<text text-anchor="start" x="130" y="-96.5" font-family="Helvetica,sans-Serif" font-size="10.00">+</text>
<text text-anchor="start" x="141" y="-96.5" font-family="Helvetica,sans-Serif" font-size="10.00">train()</text>
<text text-anchor="start" x="130" y="-81.5" font-family="Helvetica,sans-Serif" font-size="10.00">+</text>
<text text-anchor="start" x="141" y="-81.5" font-family="Helvetica,sans-Serif" font-size="10.00">train()</text>
<text text-anchor="start" x="130" y="-66.5" font-family="Helvetica,sans-Serif" font-size="10.00">+</text>
<text text-anchor="start" x="141" y="-66.5" font-family="Helvetica,sans-Serif" font-size="10.00">~RegressionWisard()</text>
<text text-anchor="start" x="130.5" y="-51.5" font-family="Helvetica,sans-Serif" font-size="10.00">#</text>
<text text-anchor="start" x="141" y="-51.5" font-family="Helvetica,sans-Serif" font-size="10.00">checkAddressSize()</text>
<text text-anchor="start" x="130.5" y="-36.5" font-family="Helvetica,sans-Serif" font-size="10.00">#</text>
<text text-anchor="start" x="141" y="-36.5" font-family="Helvetica,sans-Serif" font-size="10.00">checkEntrySize()</text>
<text text-anchor="start" x="130.5" y="-21.5" font-family="Helvetica,sans-Serif" font-size="10.00">#</text>
<text text-anchor="start" x="141" y="-21.5" font-family="Helvetica,sans-Serif" font-size="10.00">checkMinZeroOne()</text>
<text text-anchor="start" x="130.5" y="-6.5" font-family="Helvetica,sans-Serif" font-size="10.00">#</text>
<text text-anchor="start" x="141" y="-6.5" font-family="Helvetica,sans-Serif" font-size="10.00">setRAMShuffle()</text>
<polygon fill="#666666" stroke="#666666" points="126,-331.5 126,-331.5 238,-331.5 238,-331.5 126,-331.5"/>
<polygon fill="#666666" stroke="#666666" points="126,-211.5 126,-211.5 139,-211.5 139,-211.5 126,-211.5"/>
<polygon fill="#666666" stroke="#666666" points="139,-211.5 139,-211.5 238,-211.5 238,-211.5 139,-211.5"/>
<polygon fill="none" stroke="#666666" points="126,0 126,-349 238,-349 238,0 126,0"/>
</a>
</g>
</g>
<!-- Node2 -->
<g id="Node000002" class="node">
<title>Node2</title>
<g id="a_Node000002"><a xlink:title=" ">
<polygon fill="white" stroke="transparent" points="86,-460 0,-460 0,-411 86,-411 86,-460"/>
<text text-anchor="start" x="5" y="-447.5" font-family="Helvetica,sans-Serif" font-size="10.00">RegressionModel</text>
<text text-anchor="start" x="41" y="-432.5" font-family="Helvetica,sans-Serif" font-size="10.00"> </text>
<text text-anchor="start" x="41" y="-417.5" font-family="Helvetica,sans-Serif" font-size="10.00"> </text>
<polygon fill="#666666" stroke="#666666" points="0,-442.5 0,-442.5 86,-442.5 86,-442.5 0,-442.5"/>
<polygon fill="#666666" stroke="#666666" points="0,-427.5 0,-427.5 86,-427.5 86,-427.5 0,-427.5"/>
<polygon fill="none" stroke="#666666" points="0,-411 0,-460 86,-460 86,-411 0,-411"/>
</a>
</g>
</g>
<!-- Node2&#45;&gt;Node1 -->
<g id="edge1_Node000001_Node000002" class="edge">
<title>Node2&#45;&gt;Node1</title>
<g id="a_edge1_Node000001_Node000002"><a xlink:title=" ">
<path fill="none" stroke="#63b8ff" d="M60.63,-401.65C77.07,-371.01 102.51,-323.62 125.85,-280.12"/>
<polygon fill="none" stroke="#63b8ff" points="57.47,-400.13 55.83,-410.6 63.64,-403.44 57.47,-400.13"/>
</a>
</g>
</g>
<!-- Node3 -->
<g id="Node000003" class="node">
<title>Node3</title>
<g id="a_Node000003"><a xlink:href="classMean.html" target="_top" xlink:title="Classe base abstrata para cálculo de médias.">
<polygon fill="white" stroke="transparent" points="170,-475 104,-475 104,-396 170,-396 170,-475"/>
<text text-anchor="start" x="124.5" y="-462.5" font-family="Helvetica,sans-Serif" font-size="10.00">Mean</text>
<text text-anchor="start" x="135" y="-447.5" font-family="Helvetica,sans-Serif" font-size="10.00"> </text>
<text text-anchor="start" x="108" y="-432.5" font-family="Helvetica,sans-Serif" font-size="10.00">+</text>
<text text-anchor="start" x="119" y="-432.5" font-family="Helvetica,sans-Serif" font-size="10.00">calculate()</text>
<text text-anchor="start" x="108" y="-417.5" font-family="Helvetica,sans-Serif" font-size="10.00">+</text>
<text text-anchor="start" x="119" y="-417.5" font-family="Helvetica,sans-Serif" font-size="10.00">clone()</text>
<text text-anchor="start" x="108" y="-402.5" font-family="Helvetica,sans-Serif" font-size="10.00">+</text>
<text text-anchor="start" x="119" y="-402.5" font-family="Helvetica,sans-Serif" font-size="10.00">getJSON()</text>
<polygon fill="#666666" stroke="#666666" points="104,-457.5 104,-457.5 170,-457.5 170,-457.5 104,-457.5"/>
<polygon fill="#666666" stroke="#666666" points="104,-442.5 104,-442.5 170,-442.5 170,-442.5 104,-442.5"/>
<polygon fill="none" stroke="#666666" points="104,-396 104,-475 170,-475 170,-396 104,-396"/>
</a>
</g>
</g>
<!-- Node3&#45;&gt;Node1 -->
<g id="edge2_Node000001_Node000003" class="edge">
<title>Node3&#45;&gt;Node1</title>
<g id="a_edge2_Node000001_Node000003"><a xlink:title=" ">
<path fill="none" stroke="#63b8ff" d="M143.74,-395.73C145.52,-385.46 147.57,-373.67 149.77,-360.99"/>
<polygon fill="none" stroke="#63b8ff" points="149.78,-360.94 146.87,-354.34 151.84,-349.11 154.75,-355.71 149.78,-360.94"/>
</a>
</g>
<text text-anchor="middle" x="163.5" y="-370" font-family="Helvetica,sans-Serif" font-size="10.00" fill="grey"> &#45;mean</text>
</g>
<!-- Node4 -->
<g id="Node000004" class="node">
<title>Node4</title>
<g id="a_Node000004"><a xlink:title=" ">
<polygon fill="white" stroke="transparent" points="335.5,-460 188.5,-460 188.5,-411 335.5,-411 335.5,-460"/>
<text text-anchor="start" x="194" y="-447.5" font-family="Helvetica,sans-Serif" font-size="10.00">std::vector&lt; RegressionRAM &gt;</text>
<text text-anchor="start" x="260.5" y="-432.5" font-family="Helvetica,sans-Serif" font-size="10.00"> </text>
<text text-anchor="start" x="260.5" y="-417.5" font-family="Helvetica,sans-Serif" font-size="10.00"> </text>
<polygon fill="#666666" stroke="#666666" points="189,-442.5 189,-442.5 336,-442.5 336,-442.5 189,-442.5"/>
<polygon fill="#666666" stroke="#666666" points="189,-427.5 189,-427.5 336,-427.5 336,-427.5 189,-427.5"/>
<polygon fill="none" stroke="#666666" points="188.5,-411 188.5,-460 335.5,-460 335.5,-411 188.5,-411"/>
</a>
</g>
</g>
<!-- Node4&#45;&gt;Node1 -->
<g id="edge3_Node000001_Node000004" class="edge">
<title>Node4&#45;&gt;Node1</title>
<g id="a_edge3_Node000001_Node000004"><a xlink:title=" ">
<path fill="none" stroke="#63b8ff" d="M254.62,-410.6C250.61,-397.62 245.25,-380.26 239.24,-360.82"/>
<polygon fill="none" stroke="#63b8ff" points="239.18,-360.62 233.59,-356.07 235.64,-349.16 241.23,-353.71 239.18,-360.62"/>
</a>
</g>
<text text-anchor="middle" x="256" y="-370" font-family="Helvetica,sans-Serif" font-size="10.00" fill="grey"> &#45;rams</text>
</g>
<!-- Node5 -->
<g id="Node000005" class="node">
<title>Node5</title>
<g id="a_Node000005"><a xlink:href="classRegressionRAM.html" target="_top" xlink:title="Classe representando a RAM.">
<polygon fill="white" stroke="transparent" points="329,-811 225,-811 225,-522 329,-522 329,-811"/>
<text text-anchor="start" x="240.5" y="-798.5" font-family="Helvetica,sans-Serif" font-size="10.00">RegressionRAM</text>
<text text-anchor="start" x="230.5" y="-783.5" font-family="Helvetica,sans-Serif" font-size="10.00">&#45;</text>
<text text-anchor="start" x="240" y="-783.5" font-family="Helvetica,sans-Serif" font-size="10.00">memory</text>
<text text-anchor="start" x="230.5" y="-768.5" font-family="Helvetica,sans-Serif" font-size="10.00">&#45;</text>
<text text-anchor="start" x="240" y="-768.5" font-family="Helvetica,sans-Serif" font-size="10.00">minOne</text>
<text text-anchor="start" x="230.5" y="-753.5" font-family="Helvetica,sans-Serif" font-size="10.00">&#45;</text>
<text text-anchor="start" x="240" y="-753.5" font-family="Helvetica,sans-Serif" font-size="10.00">minZero</text>
<text text-anchor="start" x="229" y="-738.5" font-family="Helvetica,sans-Serif" font-size="10.00">+</text>
<text text-anchor="start" x="240" y="-738.5" font-family="Helvetica,sans-Serif" font-size="10.00">applyFit()</text>
<text text-anchor="start" x="229" y="-723.5" font-family="Helvetica,sans-Serif" font-size="10.00">+</text>
<text text-anchor="start" x="240" y="-723.5" font-family="Helvetica,sans-Serif" font-size="10.00">calculateFit()</text>
<text text-anchor="start" x="229" y="-708.5" font-family="Helvetica,sans-Serif" font-size="10.00">+</text>
<text text-anchor="start" x="240" y="-708.5" font-family="Helvetica,sans-Serif" font-size="10.00">getJSON()</text>
<text text-anchor="start" x="229" y="-693.5" font-family="Helvetica,sans-Serif" font-size="10.00">+</text>
<text text-anchor="start" x="240" y="-693.5" font-family="Helvetica,sans-Serif" font-size="10.00">getMapping()</text>
<text text-anchor="start" x="229" y="-678.5" font-family="Helvetica,sans-Serif" font-size="10.00">+</text>
<text text-anchor="start" x="240" y="-678.5" font-family="Helvetica,sans-Serif" font-size="10.00">getMemory()</text>
<text text-anchor="start" x="229" y="-663.5" font-family="Helvetica,sans-Serif" font-size="10.00">+</text>
<text text-anchor="start" x="240" y="-663.5" font-family="Helvetica,sans-Serif" font-size="10.00">getsizeoff()</text>
<text text-anchor="start" x="229" y="-648.5" font-family="Helvetica,sans-Serif" font-size="10.00">+</text>
<text text-anchor="start" x="240" y="-648.5" font-family="Helvetica,sans-Serif" font-size="10.00">getVote()</text>
<text text-anchor="start" x="229" y="-633.5" font-family="Helvetica,sans-Serif" font-size="10.00">+</text>
<text text-anchor="start" x="240" y="-633.5" font-family="Helvetica,sans-Serif" font-size="10.00">RegressionRAM()</text>
<text text-anchor="start" x="229" y="-618.5" font-family="Helvetica,sans-Serif" font-size="10.00">+</text>
<text text-anchor="start" x="240" y="-618.5" font-family="Helvetica,sans-Serif" font-size="10.00">RegressionRAM()</text>
<text text-anchor="start" x="229" y="-603.5" font-family="Helvetica,sans-Serif" font-size="10.00">+</text>
<text text-anchor="start" x="240" y="-603.5" font-family="Helvetica,sans-Serif" font-size="10.00">RegressionRAM()</text>
<text text-anchor="start" x="229" y="-588.5" font-family="Helvetica,sans-Serif" font-size="10.00">+</text>
<text text-anchor="start" x="240" y="-588.5" font-family="Helvetica,sans-Serif" font-size="10.00">setMinOne()</text>
<text text-anchor="start" x="229" y="-573.5" font-family="Helvetica,sans-Serif" font-size="10.00">+</text>
<text text-anchor="start" x="240" y="-573.5" font-family="Helvetica,sans-Serif" font-size="10.00">setMinZero()</text>
<text text-anchor="start" x="229" y="-558.5" font-family="Helvetica,sans-Serif" font-size="10.00">+</text>
<text text-anchor="start" x="240" y="-558.5" font-family="Helvetica,sans-Serif" font-size="10.00">train()</text>
<text text-anchor="start" x="229" y="-543.5" font-family="Helvetica,sans-Serif" font-size="10.00">+</text>
<text text-anchor="start" x="240" y="-543.5" font-family="Helvetica,sans-Serif" font-size="10.00">~RegressionRAM()</text>
<text text-anchor="start" x="229.5" y="-528.5" font-family="Helvetica,sans-Serif" font-size="10.00">#</text>
<text text-anchor="start" x="240" y="-528.5" font-family="Helvetica,sans-Serif" font-size="10.00">getIndex()</text>
<polygon fill="#666666" stroke="#666666" points="225,-793.5 225,-793.5 329,-793.5 329,-793.5 225,-793.5"/>
<polygon fill="#666666" stroke="#666666" points="225,-748.5 225,-748.5 238,-748.5 238,-748.5 225,-748.5"/>
<polygon fill="#666666" stroke="#666666" points="238,-748.5 238,-748.5 329,-748.5 329,-748.5 238,-748.5"/>
<polygon fill="none" stroke="#666666" points="225,-522 225,-811 329,-811 329,-522 225,-522"/>
</a>
</g>
</g>
<!-- Node5&#45;&gt;Node4 -->
<g id="edge4_Node000004_Node000005" class="edge">
<title>Node5&#45;&gt;Node4</title>
<g id="a_edge4_Node000004_Node000005"><a xlink:title=" ">
<path fill="none" stroke="#63b8ff" d="M267.59,-521.77C266.39,-503.47 265.26,-486.24 264.33,-472.12"/>
<polygon fill="none" stroke="#63b8ff" points="264.33,-472.06 259.95,-466.33 263.54,-460.08 267.93,-465.81 264.33,-472.06"/>
</a>
</g>
<text text-anchor="middle" x="290.5" y="-496" font-family="Helvetica,sans-Serif" font-size="10.00" fill="grey"> +elements</text>
</g>
<!-- Node6 -->
<g id="Node000006" class="node">
<title>Node6</title>
<g id="a_Node000006"><a xlink:title=" ">
<polygon fill="white" stroke="transparent" points="349,-907 263,-907 263,-858 349,-858 349,-907"/>
<text text-anchor="start" x="268" y="-894.5" font-family="Helvetica,sans-Serif" font-size="10.00">std::vector&lt; int &gt;</text>
<text text-anchor="start" x="273.5" y="-879.5" font-family="Helvetica,sans-Serif" font-size="10.00">+</text>
<text text-anchor="start" x="291" y="-879.5" font-family="Helvetica,sans-Serif" font-size="10.00">elements</text>
<text text-anchor="start" x="304" y="-864.5" font-family="Helvetica,sans-Serif" font-size="10.00"> </text>
<polygon fill="#666666" stroke="#666666" points="263,-889.5 263,-889.5 349,-889.5 349,-889.5 263,-889.5"/>
<polygon fill="#666666" stroke="#666666" points="263,-874.5 263,-874.5 289,-874.5 289,-874.5 263,-874.5"/>
<polygon fill="#666666" stroke="#666666" points="289,-874.5 289,-874.5 349,-874.5 349,-874.5 289,-874.5"/>
<polygon fill="none" stroke="#666666" points="263,-858 263,-907 349,-907 349,-858 263,-858"/>
</a>
</g>
</g>
<!-- Node6&#45;&gt;Node1 -->
<g id="edge9_Node000001_Node000006" class="edge">
<title>Node6&#45;&gt;Node1</title>
<g id="a_edge9_Node000001_Node000006"><a xlink:title=" ">
<path fill="none" stroke="#63b8ff" d="M334.51,-857.9C339.2,-852.54 343.38,-846.5 346,-840 347.83,-835.47 346.01,-833.89 346,-829 345.78,-636.56 405.43,-578.71 345,-396 325.4,-336.75 283.14,-280.37 246.56,-239.45"/>
<polygon fill="none" stroke="#63b8ff" points="246.44,-239.31 239.44,-237.56 238.37,-230.43 245.36,-232.18 246.44,-239.31"/>
</a>
</g>
<text text-anchor="middle" x="390.5" y="-496" font-family="Helvetica,sans-Serif" font-size="10.00" fill="grey"> &#45;mapping</text>
</g>
<!-- Node6&#45;&gt;Node5 -->
<g id="edge5_Node000005_Node000006" class="edge">
<title>Node6&#45;&gt;Node5</title>
<g id="a_edge5_Node000005_Node000006"><a xlink:title=" ">
<path fill="none" stroke="#63b8ff" d="M302.79,-857.78C301.5,-848.28 299.9,-836.49 298.14,-823.47"/>
<polygon fill="none" stroke="#63b8ff" points="298.08,-823.08 293.31,-817.68 296.47,-811.19 301.24,-816.6 298.08,-823.08"/>
</a>
</g>
<text text-anchor="middle" x="320.5" y="-832" font-family="Helvetica,sans-Serif" font-size="10.00" fill="grey"> &#45;mapping</text>
</g>
<!-- Node7 -->
<g id="Node000007" class="node">
<title>Node7</title>
<g id="a_Node000007"><a xlink:title=" ">
<polygon fill="white" stroke="transparent" points="245.5,-1003 164.5,-1003 164.5,-954 245.5,-954 245.5,-1003"/>
<text text-anchor="start" x="170" y="-990.5" font-family="Helvetica,sans-Serif" font-size="10.00">std::vector&lt; T &gt;</text>
<text text-anchor="start" x="203.5" y="-975.5" font-family="Helvetica,sans-Serif" font-size="10.00"> </text>
<text text-anchor="start" x="203.5" y="-960.5" font-family="Helvetica,sans-Serif" font-size="10.00"> </text>
<polygon fill="#666666" stroke="#666666" points="165,-985.5 165,-985.5 246,-985.5 246,-985.5 165,-985.5"/>
<polygon fill="#666666" stroke="#666666" points="165,-970.5 165,-970.5 246,-970.5 246,-970.5 165,-970.5"/>
<polygon fill="none" stroke="#666666" points="164.5,-954 164.5,-1003 245.5,-1003 245.5,-954 164.5,-954"/>
</a>
</g>
</g>
<!-- Node7&#45;&gt;Node4 -->
<g id="edge8_Node000004_Node000007" class="edge">
<title>Node7&#45;&gt;Node4</title>
<g id="a_edge8_Node000004_Node000007"><a xlink:title=" ">
<path fill="none" stroke="orange" d="M200.24,-943.62C190.65,-866.84 173.35,-674.42 216,-522 222.22,-499.76 234.96,-476.84 245.46,-460.33"/>
<polygon fill="orange" stroke="orange" points="196.79,-944.2 201.54,-953.67 203.73,-943.31 196.79,-944.2"/>
</a>
</g>
<text text-anchor="middle" x="238" y="-832" font-family="Helvetica,sans-Serif" font-size="10.00" fill="grey"> &lt; RegressionRAM &gt;</text>
</g>
<!-- Node7&#45;&gt;Node6 -->
<g id="edge6_Node000006_Node000007" class="edge">
<title>Node7&#45;&gt;Node6</title>
<g id="a_edge6_Node000006_Node000007"><a xlink:title=" ">
<path fill="none" stroke="orange" d="M237.93,-946.85C251.76,-933.98 267.6,-919.23 280.52,-907.21"/>
<polygon fill="orange" stroke="orange" points="235.42,-944.4 230.49,-953.78 240.19,-949.53 235.42,-944.4"/>
</a>
</g>
<text text-anchor="middle" x="274" y="-928" font-family="Helvetica,sans-Serif" font-size="10.00" fill="grey"> &lt; int &gt;</text>
</g>
<!-- Node8 -->
<g id="Node000008" class="node">
<title>Node8</title>
<g id="a_Node000008"><a xlink:title=" ">
<polygon fill="white" stroke="transparent" points="213.5,-1099 196.5,-1099 196.5,-1050 213.5,-1050 213.5,-1099"/>
<text text-anchor="start" x="202" y="-1086.5" font-family="Helvetica,sans-Serif" font-size="10.00">T</text>
<text text-anchor="start" x="203.5" y="-1071.5" font-family="Helvetica,sans-Serif" font-size="10.00"> </text>
<text text-anchor="start" x="203.5" y="-1056.5" font-family="Helvetica,sans-Serif" font-size="10.00"> </text>
<polygon fill="#666666" stroke="#666666" points="197,-1081.5 197,-1081.5 214,-1081.5 214,-1081.5 197,-1081.5"/>
<polygon fill="#666666" stroke="#666666" points="197,-1066.5 197,-1066.5 214,-1066.5 214,-1066.5 197,-1066.5"/>
<polygon fill="none" stroke="#666666" points="196.5,-1050 196.5,-1099 213.5,-1099 213.5,-1050 196.5,-1050"/>
</a>
</g>
</g>
<!-- Node8&#45;&gt;Node7 -->
<g id="edge7_Node000007_Node000008" class="edge">
<title>Node8&#45;&gt;Node7</title>
<g id="a_edge7_Node000007_Node000008"><a xlink:title=" ">
<path fill="none" stroke="#63b8ff" d="M205,-1049.78C205,-1039.32 205,-1026.79 205,-1015.23"/>
<polygon fill="none" stroke="#63b8ff" points="205,-1015.21 201,-1009.21 205,-1003.21 209,-1009.21 205,-1015.21"/>
</a>
</g>
<text text-anchor="middle" x="229.5" y="-1024" font-family="Helvetica,sans-Serif" font-size="10.00" fill="grey"> +elements</text>
</g>
</g>
</svg>
