<?xml version="1.0" encoding="UTF-8" standalone="no"?>
<!DOCTYPE svg PUBLIC "-//W3C//DTD SVG 1.1//EN"
 "http://www.w3.org/Graphics/SVG/1.1/DTD/svg11.dtd">
<!-- Generated by graphviz version 2.43.0 (0)
 -->
<!-- Title: RegressionRAMDataHandle::data Pages: 1 -->
<svg width="330pt" height="134pt"
 viewBox="0.00 0.00 330.00 134.00" xmlns="http://www.w3.org/2000/svg" xmlns:xlink="http://www.w3.org/1999/xlink">
<g id="graph0" class="graph" transform="scale(1 1) rotate(0) translate(4 130)">
<title>RegressionRAMDataHandle::data</title>
<!-- Node1 -->
<g id="Node000001" class="node">
<title>Node1</title>
<g id="a_Node000001"><a xlink:title="Gets the entire data as a string.">
<polygon fill="#999999" stroke="#666666" points="322,-78 182,-78 182,-48 322,-48 322,-78"/>
<text text-anchor="start" x="190" y="-66" font-family="Helvetica,sans-Serif" font-size="10.00">RegressionRAMDataHandle</text>
<text text-anchor="middle" x="252" y="-55" font-family="Helvetica,sans-Serif" font-size="10.00">::data</text>
</a>
</g>
</g>
<!-- Node1&#45;&gt;Node1 -->
<g id="edge1_Node000001_Node000001" class="edge">
<title>Node1&#45;&gt;Node1</title>
<g id="a_edge1_Node000001_Node000001"><a xlink:title=" ">
<path fill="none" stroke="#63b8ff" d="M283.16,-88.6C278.9,-92.97 268.51,-96 252,-96 224.19,-96 213.76,-87.41 220.71,-78.28"/>
<polygon fill="#63b8ff" stroke="#63b8ff" points="286.66,-88.32 283.29,-78.28 279.66,-88.23 286.66,-88.32"/>
</a>
</g>
</g>
<!-- Node2 -->
<g id="Node000002" class="node">
<title>Node2</title>
<g id="a_Node000002"><a xlink:href="classRegressionRAMDataHandle.html#ae52da90bfea5c5f772bf8828ef83381d" target="_top" xlink:title="Constructor that initializes the object with a single regression RAM data.">
<polygon fill="white" stroke="#666666" points="146,-126 0,-126 0,-96 146,-96 146,-126"/>
<text text-anchor="start" x="8" y="-114" font-family="Helvetica,sans-Serif" font-size="10.00">RegressionRAMDataHandle</text>
<text text-anchor="middle" x="73" y="-103" font-family="Helvetica,sans-Serif" font-size="10.00">::RegressionRAMDataHandle</text>
</a>
</g>
</g>
<!-- Node1&#45;&gt;Node2 -->
<g id="edge2_Node000001_Node000002" class="edge">
<title>Node1&#45;&gt;Node2</title>
<g id="a_edge2_Node000001_Node000002"><a xlink:title=" ">
<path fill="none" stroke="#63b8ff" d="M185.66,-80.72C167.15,-85.74 147.18,-91.15 129.32,-96"/>
<polygon fill="#63b8ff" stroke="#63b8ff" points="186.75,-84.05 195.48,-78.06 184.91,-77.3 186.75,-84.05"/>
</a>
</g>
</g>
<!-- Node3 -->
<g id="Node000003" class="node">
<title>Node3</title>
<g id="a_Node000003"><a xlink:href="classRegressionRAMDataHandle.html#a933bf9c75fb351c4e65f7661437c3b68" target="_top" xlink:title="Constructor that initializes the object with multiple regression RAM data.">
<polygon fill="white" stroke="#666666" points="146,-78 0,-78 0,-48 146,-48 146,-78"/>
<text text-anchor="start" x="8" y="-66" font-family="Helvetica,sans-Serif" font-size="10.00">RegressionRAMDataHandle</text>
<text text-anchor="middle" x="73" y="-55" font-family="Helvetica,sans-Serif" font-size="10.00">::RegressionRAMDataHandle</text>
</a>
</g>
</g>
<!-- Node1&#45;&gt;Node3 -->
<g id="edge3_Node000001_Node000003" class="edge">
<title>Node1&#45;&gt;Node3</title>
<g id="a_edge3_Node000001_Node000003"><a xlink:title=" ">
<path fill="none" stroke="#63b8ff" d="M171.53,-63C163.05,-63 154.45,-63 146.06,-63"/>
<polygon fill="#63b8ff" stroke="#63b8ff" points="171.81,-66.5 181.81,-63 171.81,-59.5 171.81,-66.5"/>
</a>
</g>
</g>
<!-- Node4 -->
<g id="Node000004" class="node">
<title>Node4</title>
<g id="a_Node000004"><a xlink:href="classRegressionRAMDataHandle.html#a1195014557d4831bc5d655027713fcfe" target="_top" xlink:title="Saves the data to a file with a given prefix.">
<polygon fill="white" stroke="#666666" points="143,-30 3,-30 3,0 143,0 143,-30"/>
<text text-anchor="start" x="11" y="-18" font-family="Helvetica,sans-Serif" font-size="10.00">RegressionRAMDataHandle</text>
<text text-anchor="middle" x="73" y="-7" font-family="Helvetica,sans-Serif" font-size="10.00">::save</text>
</a>
</g>
</g>
<!-- Node1&#45;&gt;Node4 -->
<g id="edge4_Node000001_Node000004" class="edge">
<title>Node1&#45;&gt;Node4</title>
<g id="a_edge4_Node000001_Node000004"><a xlink:title=" ">
<path fill="none" stroke="#63b8ff" d="M185.66,-45.28C167.15,-40.26 147.18,-34.85 129.32,-30"/>
<polygon fill="#63b8ff" stroke="#63b8ff" points="184.91,-48.7 195.48,-47.94 186.75,-41.95 184.91,-48.7"/>
</a>
</g>
</g>
</g>
</svg>
