<?xml version="1.0" encoding="UTF-8" standalone="no"?>
<!DOCTYPE svg PUBLIC "-//W3C//DTD SVG 1.1//EN"
 "http://www.w3.org/Graphics/SVG/1.1/DTD/svg11.dtd">
<!-- Generated by graphviz version 2.43.0 (0)
 -->
<!-- Title: RegressionWisard::calculateFit Pages: 1 -->
<svg width="537pt" height="64pt"
 viewBox="0.00 0.00 537.00 64.00" xmlns="http://www.w3.org/2000/svg" xmlns:xlink="http://www.w3.org/1999/xlink">
<g id="graph0" class="graph" transform="scale(1 1) rotate(0) translate(4 60)">
<title>RegressionWisard::calculateFit</title>
<!-- Node1 -->
<g id="Node000001" class="node">
<title>Node1</title>
<g id="a_Node000001"><a xlink:title="Calcula o ajuste para uma entrada binária e um valor y.">
<polygon fill="#999999" stroke="#666666" points="153,-37 0,-37 0,-18 153,-18 153,-37"/>
<text text-anchor="middle" x="76.5" y="-25" font-family="Helvetica,sans-Serif" font-size="10.00">RegressionWisard::calculateFit</text>
</a>
</g>
</g>
<!-- Node2 -->
<g id="Node000002" class="node">
<title>Node2</title>
<g id="a_Node000002"><a xlink:href="classRegressionWisard.html#ab4d4796e3f62df331fee309301e0a681" target="_top" xlink:title="Faz a predição para uma entrada binária.">
<polygon fill="white" stroke="#666666" points="321,-37 189,-37 189,-18 321,-18 321,-37"/>
<text text-anchor="middle" x="255" y="-25" font-family="Helvetica,sans-Serif" font-size="10.00">RegressionWisard::predict</text>
</a>
</g>
</g>
<!-- Node1&#45;&gt;Node2 -->
<g id="edge1_Node000001_Node000002" class="edge">
<title>Node1&#45;&gt;Node2</title>
<g id="a_edge1_Node000001_Node000002"><a xlink:title=" ">
<path fill="none" stroke="#63b8ff" d="M153.12,-27.5C161.57,-27.5 170.17,-27.5 178.62,-27.5"/>
<polygon fill="#63b8ff" stroke="#63b8ff" points="178.82,-31 188.82,-27.5 178.82,-24 178.82,-31"/>
</a>
</g>
</g>
<!-- Node3 -->
<g id="Node000003" class="node">
<title>Node3</title>
<g id="a_Node000003"><a xlink:href="classMean.html#a6c725db111881910fcf4df655debbbc7" target="_top" xlink:title="Calcula a média com base nos dados fornecidos.">
<polygon fill="white" stroke="#666666" points="486,-56 400,-56 400,-37 486,-37 486,-56"/>
<text text-anchor="middle" x="443" y="-44" font-family="Helvetica,sans-Serif" font-size="10.00">Mean::calculate</text>
</a>
</g>
</g>
<!-- Node2&#45;&gt;Node3 -->
<g id="edge2_Node000002_Node000003" class="edge">
<title>Node2&#45;&gt;Node3</title>
<g id="a_edge2_Node000002_Node000003"><a xlink:title=" ">
<path fill="none" stroke="#63b8ff" d="M321.05,-34.15C343.56,-36.44 368.48,-38.99 389.81,-41.17"/>
<polygon fill="#63b8ff" stroke="#63b8ff" points="389.67,-44.67 399.98,-42.21 390.38,-37.71 389.67,-44.67"/>
</a>
</g>
</g>
<!-- Node4 -->
<g id="Node000004" class="node">
<title>Node4</title>
<g id="a_Node000004"><a xlink:href="classRegressionWisard.html#a6a25655a9cb15452b468a13dc4ed2858" target="_top" xlink:title="Verifica o tamanho da entrada.">
<polygon fill="white" stroke="#666666" points="529,-19 357,-19 357,0 529,0 529,-19"/>
<text text-anchor="middle" x="443" y="-7" font-family="Helvetica,sans-Serif" font-size="10.00">RegressionWisard::checkEntrySize</text>
</a>
</g>
</g>
<!-- Node2&#45;&gt;Node4 -->
<g id="edge3_Node000002_Node000004" class="edge">
<title>Node2&#45;&gt;Node4</title>
<g id="a_edge3_Node000002_Node000004"><a xlink:title=" ">
<path fill="none" stroke="#63b8ff" d="M321.05,-21.2C329.34,-20.4 337.94,-19.57 346.58,-18.73"/>
<polygon fill="#63b8ff" stroke="#63b8ff" points="347.1,-22.2 356.71,-17.75 346.42,-15.23 347.1,-22.2"/>
</a>
</g>
</g>
</g>
</svg>
