<?xml version="1.0" encoding="UTF-8" standalone="no"?>
<!DOCTYPE svg PUBLIC "-//W3C//DTD SVG 1.1//EN"
 "http://www.w3.org/Graphics/SVG/1.1/DTD/svg11.dtd">
<!-- Generated by graphviz version 2.43.0 (0)
 -->
<!-- Title: RegressionWisard::predict Pages: 1 -->
<svg width="487pt" height="82pt"
 viewBox="0.00 0.00 487.00 82.00" xmlns="http://www.w3.org/2000/svg" xmlns:xlink="http://www.w3.org/1999/xlink">
<g id="graph0" class="graph" transform="scale(1 1) rotate(0) translate(4 78)">
<title>RegressionWisard::predict</title>
<!-- Node1 -->
<g id="Node000001" class="node">
<title>Node1</title>
<g id="a_Node000001"><a xlink:title="Faz a predição para uma entrada binária.">
<polygon fill="#999999" stroke="#666666" points="479,-37 347,-37 347,-18 479,-18 479,-37"/>
<text text-anchor="middle" x="413" y="-25" font-family="Helvetica,sans-Serif" font-size="10.00">RegressionWisard::predict</text>
</a>
</g>
</g>
<!-- Node2 -->
<g id="Node000002" class="node">
<title>Node2</title>
<g id="a_Node000002"><a xlink:href="classRegressionWisard.html#a2f22f241b281ab6a0e4cf1cfb9335bb4" target="_top" xlink:title="Calcula o ajuste para uma entrada binária e um valor y.">
<polygon fill="white" stroke="#666666" points="311,-56 158,-56 158,-37 311,-37 311,-56"/>
<text text-anchor="middle" x="234.5" y="-44" font-family="Helvetica,sans-Serif" font-size="10.00">RegressionWisard::calculateFit</text>
</a>
</g>
</g>
<!-- Node1&#45;&gt;Node2 -->
<g id="edge1_Node000001_Node000002" class="edge">
<title>Node1&#45;&gt;Node2</title>
<g id="a_edge1_Node000001_Node000002"><a xlink:title=" ">
<path fill="none" stroke="#63b8ff" d="M336.61,-35.62C328.19,-36.52 319.61,-37.45 311.19,-38.35"/>
<polygon fill="#63b8ff" stroke="#63b8ff" points="337.21,-39.07 346.78,-34.52 336.46,-32.11 337.21,-39.07"/>
</a>
</g>
</g>
<!-- Node4 -->
<g id="Node000004" class="node">
<title>Node4</title>
<g id="a_Node000004"><a xlink:href="classRegressionWisard.html#ab2825bf4202b12029b489c1d4de342b8" target="_top" xlink:title="Faz a predição para um conjunto de dados.">
<polygon fill="white" stroke="#666666" points="300.5,-19 168.5,-19 168.5,0 300.5,0 300.5,-19"/>
<text text-anchor="middle" x="234.5" y="-7" font-family="Helvetica,sans-Serif" font-size="10.00">RegressionWisard::predict</text>
</a>
</g>
</g>
<!-- Node1&#45;&gt;Node4 -->
<g id="edge4_Node000001_Node000004" class="edge">
<title>Node1&#45;&gt;Node4</title>
<g id="a_edge4_Node000001_Node000004"><a xlink:title=" ">
<path fill="none" stroke="#63b8ff" d="M336.8,-19.83C324.81,-18.61 312.49,-17.35 300.75,-16.15"/>
<polygon fill="#63b8ff" stroke="#63b8ff" points="336.48,-23.32 346.78,-20.85 337.19,-16.35 336.48,-23.32"/>
</a>
</g>
</g>
<!-- Node3 -->
<g id="Node000003" class="node">
<title>Node3</title>
<g id="a_Node000003"><a xlink:href="classRegressionWisard.html#a11970036606a16938821722fb3af53ee" target="_top" xlink:title="Treina o modelo com um conjunto de dados.">
<polygon fill="white" stroke="#666666" points="122,-56 0,-56 0,-37 122,-37 122,-56"/>
<text text-anchor="middle" x="61" y="-44" font-family="Helvetica,sans-Serif" font-size="10.00">RegressionWisard::train</text>
</a>
</g>
</g>
<!-- Node2&#45;&gt;Node3 -->
<g id="edge2_Node000002_Node000003" class="edge">
<title>Node2&#45;&gt;Node3</title>
<g id="a_edge2_Node000002_Node000003"><a xlink:title=" ">
<path fill="none" stroke="#63b8ff" d="M147.67,-46.5C139.04,-46.5 130.41,-46.5 122.13,-46.5"/>
<polygon fill="#63b8ff" stroke="#63b8ff" points="147.78,-50 157.78,-46.5 147.78,-43 147.78,-50"/>
</a>
</g>
</g>
<!-- Node3&#45;&gt;Node3 -->
<g id="edge3_Node000003_Node000003" class="edge">
<title>Node3&#45;&gt;Node3</title>
<g id="a_edge3_Node000003_Node000003"><a xlink:title=" ">
<path fill="none" stroke="#63b8ff" d="M93.19,-64.45C92.27,-69.82 81.54,-74 61,-74 30.43,-74 21.59,-64.73 34.49,-56.08"/>
<polygon fill="#63b8ff" stroke="#63b8ff" points="96.02,-62.39 87.51,-56.08 90.23,-66.32 96.02,-62.39"/>
</a>
</g>
</g>
</g>
</svg>
