<?xml version="1.0" encoding="UTF-8" standalone="no"?>
<!DOCTYPE svg PUBLIC "-//W3C//DTD SVG 1.1//EN"
 "http://www.w3.org/Graphics/SVG/1.1/DTD/svg11.dtd">
<!-- Generated by graphviz version 2.43.0 (0)
 -->
<!-- Title: RegressionWisard::train Pages: 1 -->
<svg width="559pt" height="64pt"
 viewBox="0.00 0.00 559.00 64.00" xmlns="http://www.w3.org/2000/svg" xmlns:xlink="http://www.w3.org/1999/xlink">
<g id="graph0" class="graph" transform="scale(1 1) rotate(0) translate(4 60)">
<title>RegressionWisard::train</title>
<!-- Node1 -->
<g id="Node000001" class="node">
<title>Node1</title>
<g id="a_Node000001"><a xlink:title="Treina o modelo com uma entrada binária e um valor y.">
<polygon fill="#999999" stroke="#666666" points="122,-37 0,-37 0,-18 122,-18 122,-37"/>
<text text-anchor="middle" x="61" y="-25" font-family="Helvetica,sans-Serif" font-size="10.00">RegressionWisard::train</text>
</a>
</g>
</g>
<!-- Node2 -->
<g id="Node000002" class="node">
<title>Node2</title>
<g id="a_Node000002"><a xlink:href="classRegressionWisard.html#a6a25655a9cb15452b468a13dc4ed2858" target="_top" xlink:title="Verifica o tamanho da entrada.">
<polygon fill="white" stroke="#666666" points="330,-56 158,-56 158,-37 330,-37 330,-56"/>
<text text-anchor="middle" x="244" y="-44" font-family="Helvetica,sans-Serif" font-size="10.00">RegressionWisard::checkEntrySize</text>
</a>
</g>
</g>
<!-- Node1&#45;&gt;Node2 -->
<g id="edge1_Node000001_Node000002" class="edge">
<title>Node1&#45;&gt;Node2</title>
<g id="a_edge1_Node000001_Node000002"><a xlink:title=" ">
<path fill="none" stroke="#63b8ff" d="M122.02,-33.8C130.39,-34.68 139.16,-35.6 147.99,-36.53"/>
<polygon fill="#63b8ff" stroke="#63b8ff" points="147.65,-40.01 157.96,-37.57 148.38,-33.05 147.65,-40.01"/>
</a>
</g>
</g>
<!-- Node3 -->
<g id="Node000003" class="node">
<title>Node3</title>
<g id="a_Node000003"><a xlink:href="classRegressionWisard.html#ad003f5c063b032a1995ccfcf2682c549" target="_top" xlink:title="Configura o embaralhamento das RAMs.">
<polygon fill="white" stroke="#666666" points="329,-19 159,-19 159,0 329,0 329,-19"/>
<text text-anchor="middle" x="244" y="-7" font-family="Helvetica,sans-Serif" font-size="10.00">RegressionWisard::setRAMShuffle</text>
</a>
</g>
</g>
<!-- Node1&#45;&gt;Node3 -->
<g id="edge2_Node000001_Node000003" class="edge">
<title>Node1&#45;&gt;Node3</title>
<g id="a_edge2_Node000001_Node000003"><a xlink:title=" ">
<path fill="none" stroke="#63b8ff" d="M122.02,-21.53C130.62,-20.68 139.63,-19.78 148.7,-18.88"/>
<polygon fill="#63b8ff" stroke="#63b8ff" points="149.33,-22.33 158.93,-17.86 148.64,-15.37 149.33,-22.33"/>
</a>
</g>
</g>
<!-- Node4 -->
<g id="Node000004" class="node">
<title>Node4</title>
<g id="a_Node000004"><a xlink:href="classRegressionWisard.html#a4bfafa888b990804d754feb76044b679" target="_top" xlink:title="Verifica o tamanho do endereço.">
<polygon fill="white" stroke="#666666" points="551,-19 366,-19 366,0 551,0 551,-19"/>
<text text-anchor="middle" x="458.5" y="-7" font-family="Helvetica,sans-Serif" font-size="10.00">RegressionWisard::checkAddressSize</text>
</a>
</g>
</g>
<!-- Node3&#45;&gt;Node4 -->
<g id="edge3_Node000003_Node000004" class="edge">
<title>Node3&#45;&gt;Node4</title>
<g id="a_edge3_Node000003_Node000004"><a xlink:title=" ">
<path fill="none" stroke="#63b8ff" d="M329.29,-9.5C338.05,-9.5 347.01,-9.5 355.93,-9.5"/>
<polygon fill="#63b8ff" stroke="#63b8ff" points="355.97,-13 365.97,-9.5 355.97,-6 355.97,-13"/>
</a>
</g>
</g>
</g>
</svg>
