<?xml version="1.0" encoding="UTF-8" standalone="no"?>
<!DOCTYPE svg PUBLIC "-//W3C//DTD SVG 1.1//EN"
 "http://www.w3.org/Graphics/SVG/1.1/DTD/svg11.dtd">
<!-- Generated by graphviz version 2.43.0 (0)
 -->
<!-- Title: PowerMean Pages: 1 -->
<svg width="85pt" height="232pt"
 viewBox="0.00 0.00 85.00 232.00" xmlns="http://www.w3.org/2000/svg" xmlns:xlink="http://www.w3.org/1999/xlink">
<g id="graph0" class="graph" transform="scale(1 1) rotate(0) translate(4 228)">
<title>PowerMean</title>
<!-- Node1 -->
<g id="Node000001" class="node">
<title>Node1</title>
<g id="a_Node000001"><a xlink:title="Classe para cálculo de média de potência.">
<polygon fill="#999999" stroke="transparent" points="77,-109 0,-109 0,0 77,0 77,-109"/>
<text text-anchor="start" x="13" y="-96.5" font-family="Helvetica,sans-Serif" font-size="10.00">PowerMean</text>
<text text-anchor="start" x="6" y="-81.5" font-family="Helvetica,sans-Serif" font-size="10.00">&#45;</text>
<text text-anchor="start" x="15.5" y="-81.5" font-family="Helvetica,sans-Serif" font-size="10.00">power</text>
<text text-anchor="start" x="4.5" y="-66.5" font-family="Helvetica,sans-Serif" font-size="10.00">+</text>
<text text-anchor="start" x="15.5" y="-66.5" font-family="Helvetica,sans-Serif" font-size="10.00">calculate()</text>
<text text-anchor="start" x="4.5" y="-51.5" font-family="Helvetica,sans-Serif" font-size="10.00">+</text>
<text text-anchor="start" x="15.5" y="-51.5" font-family="Helvetica,sans-Serif" font-size="10.00">className()</text>
<text text-anchor="start" x="4.5" y="-36.5" font-family="Helvetica,sans-Serif" font-size="10.00">+</text>
<text text-anchor="start" x="15.5" y="-36.5" font-family="Helvetica,sans-Serif" font-size="10.00">clone()</text>
<text text-anchor="start" x="4.5" y="-21.5" font-family="Helvetica,sans-Serif" font-size="10.00">+</text>
<text text-anchor="start" x="15.5" y="-21.5" font-family="Helvetica,sans-Serif" font-size="10.00">getJSON()</text>
<text text-anchor="start" x="4.5" y="-6.5" font-family="Helvetica,sans-Serif" font-size="10.00">+</text>
<text text-anchor="start" x="15.5" y="-6.5" font-family="Helvetica,sans-Serif" font-size="10.00">PowerMean()</text>
<polygon fill="#666666" stroke="#666666" points="0.5,-91.5 0.5,-91.5 77.5,-91.5 77.5,-91.5 0.5,-91.5"/>
<polygon fill="#666666" stroke="#666666" points="0.5,-76.5 0.5,-76.5 13.5,-76.5 13.5,-76.5 0.5,-76.5"/>
<polygon fill="#666666" stroke="#666666" points="13.5,-76.5 13.5,-76.5 77.5,-76.5 77.5,-76.5 13.5,-76.5"/>
<polygon fill="none" stroke="#666666" points="0,0 0,-109 77,-109 77,0 0,0"/>
</a>
</g>
</g>
<!-- Node2 -->
<g id="Node000002" class="node">
<title>Node2</title>
<g id="a_Node000002"><a xlink:href="classMean.html" target="_top" xlink:title="Classe base abstrata para cálculo de médias.">
<polygon fill="white" stroke="transparent" points="71.5,-224 5.5,-224 5.5,-145 71.5,-145 71.5,-224"/>
<text text-anchor="start" x="26" y="-211.5" font-family="Helvetica,sans-Serif" font-size="10.00">Mean</text>
<text text-anchor="start" x="36.5" y="-196.5" font-family="Helvetica,sans-Serif" font-size="10.00"> </text>
<text text-anchor="start" x="9.5" y="-181.5" font-family="Helvetica,sans-Serif" font-size="10.00">+</text>
<text text-anchor="start" x="20.5" y="-181.5" font-family="Helvetica,sans-Serif" font-size="10.00">calculate()</text>
<text text-anchor="start" x="9.5" y="-166.5" font-family="Helvetica,sans-Serif" font-size="10.00">+</text>
<text text-anchor="start" x="20.5" y="-166.5" font-family="Helvetica,sans-Serif" font-size="10.00">clone()</text>
<text text-anchor="start" x="9.5" y="-151.5" font-family="Helvetica,sans-Serif" font-size="10.00">+</text>
<text text-anchor="start" x="20.5" y="-151.5" font-family="Helvetica,sans-Serif" font-size="10.00">getJSON()</text>
<polygon fill="#666666" stroke="#666666" points="5.5,-206.5 5.5,-206.5 71.5,-206.5 71.5,-206.5 5.5,-206.5"/>
<polygon fill="#666666" stroke="#666666" points="5.5,-191.5 5.5,-191.5 71.5,-191.5 71.5,-191.5 5.5,-191.5"/>
<polygon fill="none" stroke="#666666" points="5.5,-145 5.5,-224 71.5,-224 71.5,-145 5.5,-145"/>
</a>
</g>
</g>
<!-- Node2&#45;&gt;Node1 -->
<g id="edge1_Node000001_Node000002" class="edge">
<title>Node2&#45;&gt;Node1</title>
<g id="a_edge1_Node000001_Node000002"><a xlink:title=" ">
<path fill="none" stroke="#63b8ff" d="M38.5,-134.51C38.5,-126.24 38.5,-117.62 38.5,-109.23"/>
<polygon fill="none" stroke="#63b8ff" points="35,-134.75 38.5,-144.75 42,-134.75 35,-134.75"/>
</a>
</g>
</g>
</g>
</svg>
