<?xml version="1.0" encoding="UTF-8" standalone="no"?>
<!DOCTYPE svg PUBLIC "-//W3C//DTD SVG 1.1//EN"
 "http://www.w3.org/Graphics/SVG/1.1/DTD/svg11.dtd">
<!-- Generated by graphviz version 2.43.0 (0)
 -->
<!-- Title: RegressionWisard::checkEntrySize Pages: 1 -->
<svg width="695pt" height="100pt"
 viewBox="0.00 0.00 695.00 100.00" xmlns="http://www.w3.org/2000/svg" xmlns:xlink="http://www.w3.org/1999/xlink">
<g id="graph0" class="graph" transform="scale(1 1) rotate(0) translate(4 96)">
<title>RegressionWisard::checkEntrySize</title>
<!-- Node1 -->
<g id="Node000001" class="node">
<title>Node1</title>
<g id="a_Node000001"><a xlink:title="Verifica o tamanho da entrada.">
<polygon fill="#999999" stroke="#666666" points="687,-37 515,-37 515,-18 687,-18 687,-37"/>
<text text-anchor="middle" x="601" y="-25" font-family="Helvetica,sans-Serif" font-size="10.00">RegressionWisard::checkEntrySize</text>
</a>
</g>
</g>
<!-- Node2 -->
<g id="Node000002" class="node">
<title>Node2</title>
<g id="a_Node000002"><a xlink:href="classRegressionWisard.html#ab4d4796e3f62df331fee309301e0a681" target="_top" xlink:title="Faz a predição para uma entrada binária.">
<polygon fill="white" stroke="#666666" points="479,-56 347,-56 347,-37 479,-37 479,-56"/>
<text text-anchor="middle" x="413" y="-44" font-family="Helvetica,sans-Serif" font-size="10.00">RegressionWisard::predict</text>
</a>
</g>
</g>
<!-- Node1&#45;&gt;Node2 -->
<g id="edge1_Node000001_Node000002" class="edge">
<title>Node1&#45;&gt;Node2</title>
<g id="a_edge1_Node000001_Node000002"><a xlink:title=" ">
<path fill="none" stroke="#63b8ff" d="M504.7,-37.24C496.01,-38.12 487.35,-39.01 479.02,-39.86"/>
<polygon fill="#63b8ff" stroke="#63b8ff" points="505.3,-40.69 514.89,-36.19 504.59,-33.73 505.3,-40.69"/>
</a>
</g>
</g>
<!-- Node6 -->
<g id="Node000006" class="node">
<title>Node6</title>
<g id="a_Node000006"><a xlink:href="classRegressionWisard.html#a125bffa9cf4806492f2b2cf96a3932b0" target="_top" xlink:title="Treina o modelo com uma entrada binária e um valor y.">
<polygon fill="white" stroke="#666666" points="474,-19 352,-19 352,0 474,0 474,-19"/>
<text text-anchor="middle" x="413" y="-7" font-family="Helvetica,sans-Serif" font-size="10.00">RegressionWisard::train</text>
</a>
</g>
</g>
<!-- Node1&#45;&gt;Node6 -->
<g id="edge6_Node000001_Node000006" class="edge">
<title>Node1&#45;&gt;Node6</title>
<g id="a_edge6_Node000001_Node000006"><a xlink:title=" ">
<path fill="none" stroke="#63b8ff" d="M504.86,-18.29C494.39,-17.28 483.96,-16.27 474.09,-15.32"/>
<polygon fill="#63b8ff" stroke="#63b8ff" points="504.6,-21.78 514.89,-19.26 505.28,-14.82 504.6,-21.78"/>
</a>
</g>
</g>
<!-- Node3 -->
<g id="Node000003" class="node">
<title>Node3</title>
<g id="a_Node000003"><a xlink:href="classRegressionWisard.html#a2f22f241b281ab6a0e4cf1cfb9335bb4" target="_top" xlink:title="Calcula o ajuste para uma entrada binária e um valor y.">
<polygon fill="white" stroke="#666666" points="311,-74 158,-74 158,-55 311,-55 311,-74"/>
<text text-anchor="middle" x="234.5" y="-62" font-family="Helvetica,sans-Serif" font-size="10.00">RegressionWisard::calculateFit</text>
</a>
</g>
</g>
<!-- Node2&#45;&gt;Node3 -->
<g id="edge2_Node000002_Node000003" class="edge">
<title>Node2&#45;&gt;Node3</title>
<g id="a_edge2_Node000002_Node000003"><a xlink:title=" ">
<path fill="none" stroke="#63b8ff" d="M336.61,-54.19C328.19,-55.05 319.61,-55.92 311.19,-56.78"/>
<polygon fill="#63b8ff" stroke="#63b8ff" points="337.19,-57.65 346.78,-53.15 336.48,-50.68 337.19,-57.65"/>
</a>
</g>
</g>
<!-- Node5 -->
<g id="Node000005" class="node">
<title>Node5</title>
<g id="a_Node000005"><a xlink:href="classRegressionWisard.html#ab2825bf4202b12029b489c1d4de342b8" target="_top" xlink:title="Faz a predição para um conjunto de dados.">
<polygon fill="white" stroke="#666666" points="300.5,-37 168.5,-37 168.5,-18 300.5,-18 300.5,-37"/>
<text text-anchor="middle" x="234.5" y="-25" font-family="Helvetica,sans-Serif" font-size="10.00">RegressionWisard::predict</text>
</a>
</g>
</g>
<!-- Node2&#45;&gt;Node5 -->
<g id="edge5_Node000002_Node000005" class="edge">
<title>Node2&#45;&gt;Node5</title>
<g id="a_edge5_Node000002_Node000005"><a xlink:title=" ">
<path fill="none" stroke="#63b8ff" d="M336.8,-38.41C324.81,-37.11 312.49,-35.79 300.75,-34.52"/>
<polygon fill="#63b8ff" stroke="#63b8ff" points="336.46,-41.89 346.78,-39.48 337.21,-34.93 336.46,-41.89"/>
</a>
</g>
</g>
<!-- Node4 -->
<g id="Node000004" class="node">
<title>Node4</title>
<g id="a_Node000004"><a xlink:href="classRegressionWisard.html#a11970036606a16938821722fb3af53ee" target="_top" xlink:title="Treina o modelo com um conjunto de dados.">
<polygon fill="white" stroke="#666666" points="122,-74 0,-74 0,-55 122,-55 122,-74"/>
<text text-anchor="middle" x="61" y="-62" font-family="Helvetica,sans-Serif" font-size="10.00">RegressionWisard::train</text>
</a>
</g>
</g>
<!-- Node3&#45;&gt;Node4 -->
<g id="edge3_Node000003_Node000004" class="edge">
<title>Node3&#45;&gt;Node4</title>
<g id="a_edge3_Node000003_Node000004"><a xlink:title=" ">
<path fill="none" stroke="#63b8ff" d="M147.67,-64.5C139.04,-64.5 130.41,-64.5 122.13,-64.5"/>
<polygon fill="#63b8ff" stroke="#63b8ff" points="147.78,-68 157.78,-64.5 147.78,-61 147.78,-68"/>
</a>
</g>
</g>
<!-- Node4&#45;&gt;Node4 -->
<g id="edge4_Node000004_Node000004" class="edge">
<title>Node4&#45;&gt;Node4</title>
<g id="a_edge4_Node000004_Node000004"><a xlink:title=" ">
<path fill="none" stroke="#63b8ff" d="M93.19,-82.45C92.27,-87.82 81.54,-92 61,-92 30.43,-92 21.59,-82.73 34.49,-74.08"/>
<polygon fill="#63b8ff" stroke="#63b8ff" points="96.02,-80.39 87.51,-74.08 90.23,-84.32 96.02,-80.39"/>
</a>
</g>
</g>
</g>
</svg>
