<?xml version="1.0" encoding="UTF-8" standalone="no"?>
<!DOCTYPE svg PUBLIC "-//W3C//DTD SVG 1.1//EN"
 "http://www.w3.org/Graphics/SVG/1.1/DTD/svg11.dtd">
<!-- Generated by graphviz version 2.43.0 (0)
 -->
<!-- Title: Mean Pages: 1 -->
<svg width="366pt" height="232pt"
 viewBox="0.00 0.00 366.00 232.00" xmlns="http://www.w3.org/2000/svg" xmlns:xlink="http://www.w3.org/1999/xlink">

<svg id="main" version="1.1" xmlns="http://www.w3.org/2000/svg" xmlns:xlink="http://www.w3.org/1999/xlink" xml:space="preserve" onload="init(evt)">
<style type="text/css"><![CDATA[
.node, .edge {opacity: 0.7;}
.node.selected, .edge.selected {opacity: 1;}
.edge:hover path { stroke: red; }
.edge:hover polygon { stroke: red; fill: red; }
]]></style>
<script type="application/ecmascript" xlink:href="svg.min.js"/>
<svg id="graph" class="graph">
<g id="graph0" class="graph" transform="scale(1 1) rotate(0) translate(4 228)">
<title>Mean</title>
<!-- Node1 -->
<g id="Node000001" class="node">
<title>Node1</title>
<g id="a_Node000001"><a xlink:title="Classe base abstrata para cálculo de médias.">
<polygon fill="#999999" stroke="transparent" points="212.5,-224 146.5,-224 146.5,-145 212.5,-145 212.5,-224"/>
<text text-anchor="start" x="167" y="-211.5" font-family="Helvetica,sans-Serif" font-size="10.00">Mean</text>
<text text-anchor="start" x="177.5" y="-196.5" font-family="Helvetica,sans-Serif" font-size="10.00"> </text>
<text text-anchor="start" x="150.5" y="-181.5" font-family="Helvetica,sans-Serif" font-size="10.00">+</text>
<text text-anchor="start" x="161.5" y="-181.5" font-family="Helvetica,sans-Serif" font-size="10.00">calculate()</text>
<text text-anchor="start" x="150.5" y="-166.5" font-family="Helvetica,sans-Serif" font-size="10.00">+</text>
<text text-anchor="start" x="161.5" y="-166.5" font-family="Helvetica,sans-Serif" font-size="10.00">clone()</text>
<text text-anchor="start" x="150.5" y="-151.5" font-family="Helvetica,sans-Serif" font-size="10.00">+</text>
<text text-anchor="start" x="161.5" y="-151.5" font-family="Helvetica,sans-Serif" font-size="10.00">getJSON()</text>
<polygon fill="#666666" stroke="#666666" points="146.5,-206.5 146.5,-206.5 212.5,-206.5 212.5,-206.5 146.5,-206.5"/>
<polygon fill="#666666" stroke="#666666" points="146.5,-191.5 146.5,-191.5 212.5,-191.5 212.5,-191.5 146.5,-191.5"/>
<polygon fill="none" stroke="#666666" points="146.5,-145 146.5,-224 212.5,-224 212.5,-145 146.5,-145"/>
</a>
</g>
</g>
<!-- Node2 -->
<g id="Node000002" class="node">
<title>Node2</title>
<g id="a_Node000002"><a xlink:href="classHarmonicMean.html" target="_top" xlink:title="Classe para cálculo de média harmônica.">
<polygon fill="white" stroke="transparent" points="77,-101.5 0,-101.5 0,-7.5 77,-7.5 77,-101.5"/>
<text text-anchor="start" x="5.5" y="-89.5" font-family="Helvetica,sans-Serif" font-size="10.00">HarmonicMean</text>
<text text-anchor="start" x="37" y="-74.5" font-family="Helvetica,sans-Serif" font-size="10.00"> </text>
<text text-anchor="start" x="5" y="-59.5" font-family="Helvetica,sans-Serif" font-size="10.00">+</text>
<text text-anchor="start" x="16.5" y="-59.5" font-family="Helvetica,sans-Serif" font-size="10.00">calculate()</text>
<text text-anchor="start" x="5" y="-44.5" font-family="Helvetica,sans-Serif" font-size="10.00">+</text>
<text text-anchor="start" x="16.5" y="-44.5" font-family="Helvetica,sans-Serif" font-size="10.00">className()</text>
<text text-anchor="start" x="5" y="-29.5" font-family="Helvetica,sans-Serif" font-size="10.00">+</text>
<text text-anchor="start" x="16.5" y="-29.5" font-family="Helvetica,sans-Serif" font-size="10.00">clone()</text>
<text text-anchor="start" x="5" y="-14.5" font-family="Helvetica,sans-Serif" font-size="10.00">+</text>
<text text-anchor="start" x="16.5" y="-14.5" font-family="Helvetica,sans-Serif" font-size="10.00">getJSON()</text>
<polygon fill="#666666" stroke="#666666" points="0.5,-84.5 0.5,-84.5 77.5,-84.5 77.5,-84.5 0.5,-84.5"/>
<polygon fill="#666666" stroke="#666666" points="0.5,-69.5 0.5,-69.5 77.5,-69.5 77.5,-69.5 0.5,-69.5"/>
<polygon fill="none" stroke="#666666" points="0,-7.5 0,-101.5 77,-101.5 77,-7.5 0,-7.5"/>
</a>
</g>
</g>
<!-- Node1&#45;&gt;Node2 -->
<g id="edge1_Node000001_Node000002" class="edge">
<title>Node1&#45;&gt;Node2</title>
<g id="a_edge1_Node000001_Node000002"><a xlink:title=" ">
<path fill="none" stroke="#63b8ff" d="M138.05,-153.23C121.18,-140.26 101.84,-124.54 85.5,-109 82.72,-106.36 79.93,-103.57 77.16,-100.72"/>
<polygon fill="none" stroke="#63b8ff" points="136.03,-156.09 146.11,-159.36 140.27,-150.52 136.03,-156.09"/>
</a>
</g>
</g>
<!-- Node3 -->
<g id="Node000003" class="node">
<title>Node3</title>
<g id="a_Node000003"><a xlink:href="classMedian.html" target="_top" xlink:title="Classe para cálculo de mediana.">
<polygon fill="white" stroke="transparent" points="170,-101.5 95,-101.5 95,-7.5 170,-7.5 170,-101.5"/>
<text text-anchor="start" x="117" y="-89.5" font-family="Helvetica,sans-Serif" font-size="10.00">Median</text>
<text text-anchor="start" x="131" y="-74.5" font-family="Helvetica,sans-Serif" font-size="10.00"> </text>
<text text-anchor="start" x="99.5" y="-59.5" font-family="Helvetica,sans-Serif" font-size="10.00">+</text>
<text text-anchor="start" x="110.5" y="-59.5" font-family="Helvetica,sans-Serif" font-size="10.00">calculate()</text>
<text text-anchor="start" x="99.5" y="-44.5" font-family="Helvetica,sans-Serif" font-size="10.00">+</text>
<text text-anchor="start" x="110.5" y="-44.5" font-family="Helvetica,sans-Serif" font-size="10.00">className()</text>
<text text-anchor="start" x="99.5" y="-29.5" font-family="Helvetica,sans-Serif" font-size="10.00">+</text>
<text text-anchor="start" x="110.5" y="-29.5" font-family="Helvetica,sans-Serif" font-size="10.00">clone()</text>
<text text-anchor="start" x="99.5" y="-14.5" font-family="Helvetica,sans-Serif" font-size="10.00">+</text>
<text text-anchor="start" x="110.5" y="-14.5" font-family="Helvetica,sans-Serif" font-size="10.00">getJSON()</text>
<polygon fill="#666666" stroke="#666666" points="95.5,-84.5 95.5,-84.5 170.5,-84.5 170.5,-84.5 95.5,-84.5"/>
<polygon fill="#666666" stroke="#666666" points="95.5,-69.5 95.5,-69.5 170.5,-69.5 170.5,-69.5 95.5,-69.5"/>
<polygon fill="none" stroke="#666666" points="95,-7.5 95,-101.5 170,-101.5 170,-7.5 95,-7.5"/>
</a>
</g>
</g>
<!-- Node1&#45;&gt;Node3 -->
<g id="edge2_Node000001_Node000003" class="edge">
<title>Node1&#45;&gt;Node3</title>
<g id="a_edge2_Node000001_Node000003"><a xlink:title=" ">
<path fill="none" stroke="#63b8ff" d="M161.8,-135.31C157.77,-124.32 153.5,-112.68 149.5,-101.78"/>
<polygon fill="none" stroke="#63b8ff" points="158.54,-136.57 165.27,-144.75 165.11,-134.15 158.54,-136.57"/>
</a>
</g>
</g>
<!-- Node4 -->
<g id="Node000004" class="node">
<title>Node4</title>
<g id="a_Node000004"><a xlink:href="classPowerMean.html" target="_top" xlink:title="Classe para cálculo de média de potência.">
<polygon fill="white" stroke="transparent" points="265,-109 188,-109 188,0 265,0 265,-109"/>
<text text-anchor="start" x="201" y="-96.5" font-family="Helvetica,sans-Serif" font-size="10.00">PowerMean</text>
<text text-anchor="start" x="194" y="-81.5" font-family="Helvetica,sans-Serif" font-size="10.00">&#45;</text>
<text text-anchor="start" x="203.5" y="-81.5" font-family="Helvetica,sans-Serif" font-size="10.00">power</text>
<text text-anchor="start" x="192.5" y="-66.5" font-family="Helvetica,sans-Serif" font-size="10.00">+</text>
<text text-anchor="start" x="203.5" y="-66.5" font-family="Helvetica,sans-Serif" font-size="10.00">calculate()</text>
<text text-anchor="start" x="192.5" y="-51.5" font-family="Helvetica,sans-Serif" font-size="10.00">+</text>
<text text-anchor="start" x="203.5" y="-51.5" font-family="Helvetica,sans-Serif" font-size="10.00">className()</text>
<text text-anchor="start" x="192.5" y="-36.5" font-family="Helvetica,sans-Serif" font-size="10.00">+</text>
<text text-anchor="start" x="203.5" y="-36.5" font-family="Helvetica,sans-Serif" font-size="10.00">clone()</text>
<text text-anchor="start" x="192.5" y="-21.5" font-family="Helvetica,sans-Serif" font-size="10.00">+</text>
<text text-anchor="start" x="203.5" y="-21.5" font-family="Helvetica,sans-Serif" font-size="10.00">getJSON()</text>
<text text-anchor="start" x="192.5" y="-6.5" font-family="Helvetica,sans-Serif" font-size="10.00">+</text>
<text text-anchor="start" x="203.5" y="-6.5" font-family="Helvetica,sans-Serif" font-size="10.00">PowerMean()</text>
<polygon fill="#666666" stroke="#666666" points="188.5,-91.5 188.5,-91.5 265.5,-91.5 265.5,-91.5 188.5,-91.5"/>
<polygon fill="#666666" stroke="#666666" points="188.5,-76.5 188.5,-76.5 201.5,-76.5 201.5,-76.5 188.5,-76.5"/>
<polygon fill="#666666" stroke="#666666" points="201.5,-76.5 201.5,-76.5 265.5,-76.5 265.5,-76.5 201.5,-76.5"/>
<polygon fill="none" stroke="#666666" points="188,0 188,-109 265,-109 265,0 188,0"/>
</a>
</g>
</g>
<!-- Node1&#45;&gt;Node4 -->
<g id="edge3_Node000001_Node000004" class="edge">
<title>Node1&#45;&gt;Node4</title>
<g id="a_edge3_Node000001_Node000004"><a xlink:title=" ">
<path fill="none" stroke="#63b8ff" d="M197.19,-135.33C200.31,-126.81 203.59,-117.89 206.77,-109.23"/>
<polygon fill="none" stroke="#63b8ff" points="193.89,-134.15 193.73,-144.75 200.46,-136.57 193.89,-134.15"/>
</a>
</g>
</g>
<!-- Node5 -->
<g id="Node000005" class="node">
<title>Node5</title>
<g id="a_Node000005"><a xlink:href="classSimpleMean.html" target="_top" xlink:title="Classe para cálculo de média simples.">
<polygon fill="white" stroke="transparent" points="358,-101.5 283,-101.5 283,-7.5 358,-7.5 358,-101.5"/>
<text text-anchor="start" x="293.5" y="-89.5" font-family="Helvetica,sans-Serif" font-size="10.00">SimpleMean</text>
<text text-anchor="start" x="319" y="-74.5" font-family="Helvetica,sans-Serif" font-size="10.00"> </text>
<text text-anchor="start" x="287.5" y="-59.5" font-family="Helvetica,sans-Serif" font-size="10.00">+</text>
<text text-anchor="start" x="298.5" y="-59.5" font-family="Helvetica,sans-Serif" font-size="10.00">calculate()</text>
<text text-anchor="start" x="287.5" y="-44.5" font-family="Helvetica,sans-Serif" font-size="10.00">+</text>
<text text-anchor="start" x="298.5" y="-44.5" font-family="Helvetica,sans-Serif" font-size="10.00">className()</text>
<text text-anchor="start" x="287.5" y="-29.5" font-family="Helvetica,sans-Serif" font-size="10.00">+</text>
<text text-anchor="start" x="298.5" y="-29.5" font-family="Helvetica,sans-Serif" font-size="10.00">clone()</text>
<text text-anchor="start" x="287.5" y="-14.5" font-family="Helvetica,sans-Serif" font-size="10.00">+</text>
<text text-anchor="start" x="298.5" y="-14.5" font-family="Helvetica,sans-Serif" font-size="10.00">getJSON()</text>
<polygon fill="#666666" stroke="#666666" points="283.5,-84.5 283.5,-84.5 358.5,-84.5 358.5,-84.5 283.5,-84.5"/>
<polygon fill="#666666" stroke="#666666" points="283.5,-69.5 283.5,-69.5 358.5,-69.5 358.5,-69.5 283.5,-69.5"/>
<polygon fill="none" stroke="#666666" points="283,-7.5 283,-101.5 358,-101.5 358,-7.5 283,-7.5"/>
</a>
</g>
</g>
<!-- Node1&#45;&gt;Node5 -->
<g id="edge4_Node000001_Node000005" class="edge">
<title>Node1&#45;&gt;Node5</title>
<g id="a_edge4_Node000001_Node000005"><a xlink:title=" ">
<path fill="none" stroke="#63b8ff" d="M221.1,-153.68C238.26,-140.68 257.96,-124.81 274.5,-109 277.33,-106.29 280.18,-103.42 282.98,-100.48"/>
<polygon fill="none" stroke="#63b8ff" points="218.8,-151.03 212.9,-159.82 223,-156.63 218.8,-151.03"/>
</a>
</g>
</g>
</g>
</svg>
</svg>

<style type='text/css'>
<![CDATA[
[data-mouse-over-selected='false'] { opacity: 0.7; }
[data-mouse-over-selected='true']  { opacity: 1.0; }
]]>
</style>
<script type="application/ecmascript"><![CDATA[
document.addEventListener('DOMContentLoaded', (event) => {
  highlightEdges();
  highlightAdjacentNodes();
});
]]></script>
</svg>
