<?xml version="1.0" encoding="UTF-8" standalone="no"?>
<!DOCTYPE svg PUBLIC "-//W3C//DTD SVG 1.1//EN"
 "http://www.w3.org/Graphics/SVG/1.1/DTD/svg11.dtd">
<!-- Generated by graphviz version 2.43.0 (0)
 -->
<!-- Title: RegressionWisard::checkAddressSize Pages: 1 -->
<svg width="557pt" height="27pt"
 viewBox="0.00 0.00 557.00 27.00" xmlns="http://www.w3.org/2000/svg" xmlns:xlink="http://www.w3.org/1999/xlink">
<g id="graph0" class="graph" transform="scale(1 1) rotate(0) translate(4 23)">
<title>RegressionWisard::checkAddressSize</title>
<!-- Node1 -->
<g id="Node000001" class="node">
<title>Node1</title>
<g id="a_Node000001"><a xlink:title="Verifica o tamanho do endereço.">
<polygon fill="#999999" stroke="#666666" points="549,-19 364,-19 364,0 549,0 549,-19"/>
<text text-anchor="middle" x="456.5" y="-7" font-family="Helvetica,sans-Serif" font-size="10.00">RegressionWisard::checkAddressSize</text>
</a>
</g>
</g>
<!-- Node2 -->
<g id="Node000002" class="node">
<title>Node2</title>
<g id="a_Node000002"><a xlink:href="classRegressionWisard.html#ad003f5c063b032a1995ccfcf2682c549" target="_top" xlink:title="Configura o embaralhamento das RAMs.">
<polygon fill="white" stroke="#666666" points="328,-19 158,-19 158,0 328,0 328,-19"/>
<text text-anchor="middle" x="243" y="-7" font-family="Helvetica,sans-Serif" font-size="10.00">RegressionWisard::setRAMShuffle</text>
</a>
</g>
</g>
<!-- Node1&#45;&gt;Node2 -->
<g id="edge1_Node000001_Node000002" class="edge">
<title>Node1&#45;&gt;Node2</title>
<g id="a_edge1_Node000001_Node000002"><a xlink:title=" ">
<path fill="none" stroke="#63b8ff" d="M353.84,-9.5C345.19,-9.5 336.5,-9.5 328.01,-9.5"/>
<polygon fill="#63b8ff" stroke="#63b8ff" points="353.96,-13 363.96,-9.5 353.96,-6 353.96,-13"/>
</a>
</g>
</g>
<!-- Node3 -->
<g id="Node000003" class="node">
<title>Node3</title>
<g id="a_Node000003"><a xlink:href="classRegressionWisard.html#a125bffa9cf4806492f2b2cf96a3932b0" target="_top" xlink:title="Treina o modelo com uma entrada binária e um valor y.">
<polygon fill="white" stroke="#666666" points="122,-19 0,-19 0,0 122,0 122,-19"/>
<text text-anchor="middle" x="61" y="-7" font-family="Helvetica,sans-Serif" font-size="10.00">RegressionWisard::train</text>
</a>
</g>
</g>
<!-- Node2&#45;&gt;Node3 -->
<g id="edge2_Node000002_Node000003" class="edge">
<title>Node2&#45;&gt;Node3</title>
<g id="a_edge2_Node000002_Node000003"><a xlink:title=" ">
<path fill="none" stroke="#63b8ff" d="M147.59,-9.5C138.91,-9.5 130.27,-9.5 122.02,-9.5"/>
<polygon fill="#63b8ff" stroke="#63b8ff" points="147.8,-13 157.8,-9.5 147.8,-6 147.8,-13"/>
</a>
</g>
</g>
</g>
</svg>
