<?xml version="1.0" encoding="UTF-8" standalone="no"?>
<!DOCTYPE svg PUBLIC "-//W3C//DTD SVG 1.1//EN"
 "http://www.w3.org/Graphics/SVG/1.1/DTD/svg11.dtd">
<!-- Generated by graphviz version 2.43.0 (0)
 -->
<!-- Title: RegressionRAM::getIndex Pages: 1 -->
<svg width="321pt" height="101pt"
 viewBox="0.00 0.00 321.00 101.00" xmlns="http://www.w3.org/2000/svg" xmlns:xlink="http://www.w3.org/1999/xlink">
<g id="graph0" class="graph" transform="scale(1 1) rotate(0) translate(4 97)">
<title>RegressionRAM::getIndex</title>
<!-- Node1 -->
<g id="Node000001" class="node">
<title>Node1</title>
<g id="a_Node000001"><a xlink:title="Obtém o índice da imagem binária.">
<polygon fill="#999999" stroke="#666666" points="313,-56 181,-56 181,-37 313,-37 313,-56"/>
<text text-anchor="middle" x="247" y="-44" font-family="Helvetica,sans-Serif" font-size="10.00">RegressionRAM::getIndex</text>
</a>
</g>
</g>
<!-- Node2 -->
<g id="Node000002" class="node">
<title>Node2</title>
<g id="a_Node000002"><a xlink:href="classRegressionRAM.html#afb1e91cc19c1912cc2e569bbe0f82da9" target="_top" xlink:title="Calcula o ajuste da RAM para a imagem binária e o valor yFit.">
<polygon fill="white" stroke="#666666" points="145,-93 0,-93 0,-74 145,-74 145,-93"/>
<text text-anchor="middle" x="72.5" y="-81" font-family="Helvetica,sans-Serif" font-size="10.00">RegressionRAM::calculateFit</text>
</a>
</g>
</g>
<!-- Node1&#45;&gt;Node2 -->
<g id="edge1_Node000001_Node000002" class="edge">
<title>Node1&#45;&gt;Node2</title>
<g id="a_edge1_Node000001_Node000002"><a xlink:title=" ">
<path fill="none" stroke="#63b8ff" d="M191.68,-58.15C167.98,-63.23 140.54,-69.12 118.07,-73.94"/>
<polygon fill="#63b8ff" stroke="#63b8ff" points="192.53,-61.55 201.58,-56.03 191.07,-54.7 192.53,-61.55"/>
</a>
</g>
</g>
<!-- Node3 -->
<g id="Node000003" class="node">
<title>Node3</title>
<g id="a_Node000003"><a xlink:href="classRegressionRAM.html#af3d15e9225cc5c6e514801d15a85c07a" target="_top" xlink:title="Obtém o voto da RAM para a imagem binária fornecida.">
<polygon fill="white" stroke="#666666" points="136.5,-56 8.5,-56 8.5,-37 136.5,-37 136.5,-56"/>
<text text-anchor="middle" x="72.5" y="-44" font-family="Helvetica,sans-Serif" font-size="10.00">RegressionRAM::getVote</text>
</a>
</g>
</g>
<!-- Node1&#45;&gt;Node3 -->
<g id="edge2_Node000001_Node000003" class="edge">
<title>Node1&#45;&gt;Node3</title>
<g id="a_edge2_Node000001_Node000003"><a xlink:title=" ">
<path fill="none" stroke="#63b8ff" d="M170.47,-46.5C159.14,-46.5 147.56,-46.5 136.52,-46.5"/>
<polygon fill="#63b8ff" stroke="#63b8ff" points="170.79,-50 180.79,-46.5 170.79,-43 170.79,-50"/>
</a>
</g>
</g>
<!-- Node4 -->
<g id="Node000004" class="node">
<title>Node4</title>
<g id="a_Node000004"><a xlink:href="classRegressionRAM.html#a3d40a96015f14882569e8c3bd820b03a" target="_top" xlink:title="Treina a RAM com a imagem binária e o valor y.">
<polygon fill="white" stroke="#666666" points="129,-19 16,-19 16,0 129,0 129,-19"/>
<text text-anchor="middle" x="72.5" y="-7" font-family="Helvetica,sans-Serif" font-size="10.00">RegressionRAM::train</text>
</a>
</g>
</g>
<!-- Node1&#45;&gt;Node4 -->
<g id="edge3_Node000001_Node000004" class="edge">
<title>Node1&#45;&gt;Node4</title>
<g id="a_edge3_Node000001_Node000004"><a xlink:title=" ">
<path fill="none" stroke="#63b8ff" d="M191.68,-34.85C167.98,-29.77 140.54,-23.88 118.07,-19.06"/>
<polygon fill="#63b8ff" stroke="#63b8ff" points="191.07,-38.3 201.58,-36.97 192.53,-31.45 191.07,-38.3"/>
</a>
</g>
</g>
</g>
</svg>
