<?xml version="1.0" encoding="UTF-8" standalone="no"?>
<!DOCTYPE svg PUBLIC "-//W3C//DTD SVG 1.1//EN"
 "http://www.w3.org/Graphics/SVG/1.1/DTD/svg11.dtd">
<!-- Generated by graphviz version 2.43.0 (0)
 -->
<!-- Title: Wisard Pages: 1 -->
<!--zoomable 705 -->

<svg id="main" version="1.1" xmlns="http://www.w3.org/2000/svg" xmlns:xlink="http://www.w3.org/1999/xlink" xml:space="preserve" onload="init(evt)">
<style type="text/css"><![CDATA[
.node, .edge {opacity: 0.7;}
.node.selected, .edge.selected {opacity: 1;}
.edge:hover path { stroke: red; }
.edge:hover polygon { stroke: red; fill: red; }
]]></style>

<defs>
  <circle id="rim" cx="0" cy="0" r="7"/>
  <circle id="rim2" cx="0" cy="0" r="3.5"/>
  <g id="zoomPlus">
    <use xlink:href="#rim" fill="#404040"><set attributeName="fill" to="#808080" begin="zoomplus.mouseover" end="zoomplus.mouseout"/></use>
    <path d="M-4,0h8M0,-4v8" fill="none" stroke="white" stroke-width="1.5" pointer-events="none"/>
  </g>
  <g id="zoomMin">
    <use xlink:href="#rim" fill="#404040"><set attributeName="fill" to="#808080" begin="zoomminus.mouseover" end="zoomminus.mouseout"/></use>
    <path d="M-4,0h8" fill="none" stroke="white" stroke-width="1.5" pointer-events="none"/>
  </g>
  <g id="arrowUp" transform="translate(30 24)">
    <use xlink:href="#rim"/>
    <path pointer-events="none" fill="none" stroke="white" stroke-width="1.5" d="M0,-3.0v7 M-2.5,-0.5L0,-3.0L2.5,-0.5"/>
  </g>
  <g id="arrowRight" transform="rotate(90) translate(36 -43)">
    <use xlink:href="#rim"/>
    <path pointer-events="none" fill="none" stroke="white" stroke-width="1.5" d="M0,-3.0v7 M-2.5,-0.5L0,-3.0L2.5,-0.5"/>
  </g>
  <g id="arrowDown" transform="rotate(180) translate(-30 -48)">
    <use xlink:href="#rim"/>
    <path pointer-events="none" fill="none" stroke="white" stroke-width="1.5" d="M0,-3.0v7 M-2.5,-0.5L0,-3.0L2.5,-0.5"/>
  </g>
  <g id="arrowLeft" transform="rotate(270) translate(-36 17)">
    <use xlink:href="#rim"/>
    <path pointer-events="none" fill="none" stroke="white" stroke-width="1.5" d="M0,-3.0v7 M-2.5,-0.5L0,-3.0L2.5,-0.5"/>
  </g>
  <g id="resetDef">
    <use xlink:href="#rim2" fill="#404040"><set attributeName="fill" to="#808080" begin="reset.mouseover" end="reset.mouseout"/></use>
  </g>
</defs>
<script type="application/ecmascript">
var viewWidth = 206;
var viewHeight = 705;
var sectionId = 'dynsection-0';
</script>
<script type="application/ecmascript" xlink:href="svg.min.js"/>
<svg id="graph" class="graph">
<g id="viewport">
<title>Wisard</title>
<!-- Node1 -->
<g id="Node000001" class="node">
<title>Node1</title>
<g id="a_Node000001"><a xlink:title="A class to implement the Wisard algorithm using multiple discriminators.">
<polygon fill="#999999" stroke="transparent" points="137,-199 38,-199 38,0 137,0 137,-199"/>
<text text-anchor="start" x="72.5" y="-186.5" font-family="Helvetica,sans-Serif" font-size="10.00">Wisard</text>
<text text-anchor="start" x="44" y="-171.5" font-family="Helvetica,sans-Serif" font-size="10.00">&#45;</text>
<text text-anchor="start" x="53.5" y="-171.5" font-family="Helvetica,sans-Serif" font-size="10.00">entrySize</text>
<text text-anchor="start" x="44" y="-156.5" font-family="Helvetica,sans-Serif" font-size="10.00">&#45;</text>
<text text-anchor="start" x="53.5" y="-156.5" font-family="Helvetica,sans-Serif" font-size="10.00">numDiscriminator</text>
<text text-anchor="start" x="44" y="-141.5" font-family="Helvetica,sans-Serif" font-size="10.00">&#45;</text>
<text text-anchor="start" x="53.5" y="-141.5" font-family="Helvetica,sans-Serif" font-size="10.00">tupleSize</text>
<text text-anchor="start" x="42.5" y="-126.5" font-family="Helvetica,sans-Serif" font-size="10.00">+</text>
<text text-anchor="start" x="53.5" y="-126.5" font-family="Helvetica,sans-Serif" font-size="10.00">addDiscriminator()</text>
<text text-anchor="start" x="42.5" y="-111.5" font-family="Helvetica,sans-Serif" font-size="10.00">+</text>
<text text-anchor="start" x="53.5" y="-111.5" font-family="Helvetica,sans-Serif" font-size="10.00">info()</text>
<text text-anchor="start" x="42.5" y="-96.5" font-family="Helvetica,sans-Serif" font-size="10.00">+</text>
<text text-anchor="start" x="53.5" y="-96.5" font-family="Helvetica,sans-Serif" font-size="10.00">rank()</text>
<text text-anchor="start" x="42.5" y="-81.5" font-family="Helvetica,sans-Serif" font-size="10.00">+</text>
<text text-anchor="start" x="53.5" y="-81.5" font-family="Helvetica,sans-Serif" font-size="10.00">rank()</text>
<text text-anchor="start" x="42.5" y="-66.5" font-family="Helvetica,sans-Serif" font-size="10.00">+</text>
<text text-anchor="start" x="53.5" y="-66.5" font-family="Helvetica,sans-Serif" font-size="10.00">reset()</text>
<text text-anchor="start" x="42.5" y="-51.5" font-family="Helvetica,sans-Serif" font-size="10.00">+</text>
<text text-anchor="start" x="53.5" y="-51.5" font-family="Helvetica,sans-Serif" font-size="10.00">stats()</text>
<text text-anchor="start" x="42.5" y="-36.5" font-family="Helvetica,sans-Serif" font-size="10.00">+</text>
<text text-anchor="start" x="53.5" y="-36.5" font-family="Helvetica,sans-Serif" font-size="10.00">train()</text>
<text text-anchor="start" x="42.5" y="-21.5" font-family="Helvetica,sans-Serif" font-size="10.00">+</text>
<text text-anchor="start" x="53.5" y="-21.5" font-family="Helvetica,sans-Serif" font-size="10.00">Wisard()</text>
<text text-anchor="start" x="42.5" y="-6.5" font-family="Helvetica,sans-Serif" font-size="10.00">+</text>
<text text-anchor="start" x="53.5" y="-6.5" font-family="Helvetica,sans-Serif" font-size="10.00">~Wisard()</text>
<polygon fill="#666666" stroke="#666666" points="38.5,-181.5 38.5,-181.5 137.5,-181.5 137.5,-181.5 38.5,-181.5"/>
<polygon fill="#666666" stroke="#666666" points="38.5,-136.5 38.5,-136.5 51.5,-136.5 51.5,-136.5 38.5,-136.5"/>
<polygon fill="#666666" stroke="#666666" points="51.5,-136.5 51.5,-136.5 137.5,-136.5 137.5,-136.5 51.5,-136.5"/>
<polygon fill="none" stroke="#666666" points="38,0 38,-199 137,-199 137,0 38,0"/>
</a>
</g>
</g>
<!-- Node2 -->
<g id="Node000002" class="node">
<title>Node2</title>
<g id="a_Node000002"><a xlink:title=" ">
<polygon fill="white" stroke="transparent" points="157.5,-295 17.5,-295 17.5,-246 157.5,-246 157.5,-295"/>
<text text-anchor="start" x="22.5" y="-282.5" font-family="Helvetica,sans-Serif" font-size="10.00">std::vector&lt; Discriminator * &gt;</text>
<text text-anchor="start" x="85.5" y="-267.5" font-family="Helvetica,sans-Serif" font-size="10.00"> </text>
<text text-anchor="start" x="85.5" y="-252.5" font-family="Helvetica,sans-Serif" font-size="10.00"> </text>
<polygon fill="#666666" stroke="#666666" points="17.5,-277.5 17.5,-277.5 157.5,-277.5 157.5,-277.5 17.5,-277.5"/>
<polygon fill="#666666" stroke="#666666" points="17.5,-262.5 17.5,-262.5 157.5,-262.5 157.5,-262.5 17.5,-262.5"/>
<polygon fill="none" stroke="#666666" points="17.5,-246 17.5,-295 157.5,-295 157.5,-246 17.5,-246"/>
</a>
</g>
</g>
<!-- Node2&#45;&gt;Node1 -->
<g id="edge1_Node000001_Node000002" class="edge">
<title>Node2&#45;&gt;Node1</title>
<g id="a_edge1_Node000001_Node000002"><a xlink:title=" ">
<path fill="none" stroke="#63b8ff" d="M87.5,-245.64C87.5,-236.06 87.5,-224.28 87.5,-211.6"/>
<polygon fill="none" stroke="#63b8ff" points="87.5,-211.22 83.5,-205.22 87.5,-199.22 91.5,-205.22 87.5,-211.22"/>
</a>
</g>
<text text-anchor="middle" x="121" y="-220" font-family="Helvetica,sans-Serif" font-size="10.00" fill="grey"> &#45;discriminators</text>
</g>
<!-- Node3 -->
<g id="Node000003" class="node">
<title>Node3</title>
<g id="a_Node000003"><a xlink:href="classDiscriminator.html" target="_top" xlink:title="A class to implement a discriminator using bit arrays and pseudo&#45;random mappings.">
<polygon fill="white" stroke="transparent" points="89,-601 0,-601 0,-342 89,-342 89,-601"/>
<text text-anchor="start" x="16" y="-588.5" font-family="Helvetica,sans-Serif" font-size="10.00">Discriminator</text>
<text text-anchor="start" x="6" y="-573.5" font-family="Helvetica,sans-Serif" font-size="10.00">&#45;</text>
<text text-anchor="start" x="15.5" y="-573.5" font-family="Helvetica,sans-Serif" font-size="10.00">entrySize</text>
<text text-anchor="start" x="6" y="-558.5" font-family="Helvetica,sans-Serif" font-size="10.00">&#45;</text>
<text text-anchor="start" x="15.5" y="-558.5" font-family="Helvetica,sans-Serif" font-size="10.00">numRams</text>
<text text-anchor="start" x="6" y="-543.5" font-family="Helvetica,sans-Serif" font-size="10.00">&#45;</text>
<text text-anchor="start" x="15.5" y="-543.5" font-family="Helvetica,sans-Serif" font-size="10.00">rams</text>
<text text-anchor="start" x="6" y="-528.5" font-family="Helvetica,sans-Serif" font-size="10.00">&#45;</text>
<text text-anchor="start" x="15.5" y="-528.5" font-family="Helvetica,sans-Serif" font-size="10.00">tupleSize</text>
<text text-anchor="start" x="6" y="-513.5" font-family="Helvetica,sans-Serif" font-size="10.00">&#45;</text>
<text text-anchor="start" x="15.5" y="-513.5" font-family="Helvetica,sans-Serif" font-size="10.00">tuplesMapping</text>
<text text-anchor="start" x="4.5" y="-498.5" font-family="Helvetica,sans-Serif" font-size="10.00">+</text>
<text text-anchor="start" x="15.5" y="-498.5" font-family="Helvetica,sans-Serif" font-size="10.00">Discriminator()</text>
<text text-anchor="start" x="4.5" y="-483.5" font-family="Helvetica,sans-Serif" font-size="10.00">+</text>
<text text-anchor="start" x="15.5" y="-483.5" font-family="Helvetica,sans-Serif" font-size="10.00">getNumRams()</text>
<text text-anchor="start" x="4.5" y="-468.5" font-family="Helvetica,sans-Serif" font-size="10.00">+</text>
<text text-anchor="start" x="15.5" y="-468.5" font-family="Helvetica,sans-Serif" font-size="10.00">getRamBits()</text>
<text text-anchor="start" x="4.5" y="-453.5" font-family="Helvetica,sans-Serif" font-size="10.00">+</text>
<text text-anchor="start" x="15.5" y="-453.5" font-family="Helvetica,sans-Serif" font-size="10.00">getTupleSize()</text>
<text text-anchor="start" x="4.5" y="-438.5" font-family="Helvetica,sans-Serif" font-size="10.00">+</text>
<text text-anchor="start" x="15.5" y="-438.5" font-family="Helvetica,sans-Serif" font-size="10.00">info()</text>
<text text-anchor="start" x="4.5" y="-423.5" font-family="Helvetica,sans-Serif" font-size="10.00">+</text>
<text text-anchor="start" x="15.5" y="-423.5" font-family="Helvetica,sans-Serif" font-size="10.00">rank()</text>
<text text-anchor="start" x="4.5" y="-408.5" font-family="Helvetica,sans-Serif" font-size="10.00">+</text>
<text text-anchor="start" x="15.5" y="-408.5" font-family="Helvetica,sans-Serif" font-size="10.00">rank()</text>
<text text-anchor="start" x="4.5" y="-393.5" font-family="Helvetica,sans-Serif" font-size="10.00">+</text>
<text text-anchor="start" x="15.5" y="-393.5" font-family="Helvetica,sans-Serif" font-size="10.00">reset()</text>
<text text-anchor="start" x="4.5" y="-378.5" font-family="Helvetica,sans-Serif" font-size="10.00">+</text>
<text text-anchor="start" x="15.5" y="-378.5" font-family="Helvetica,sans-Serif" font-size="10.00">train()</text>
<text text-anchor="start" x="4.5" y="-363.5" font-family="Helvetica,sans-Serif" font-size="10.00">+</text>
<text text-anchor="start" x="15.5" y="-363.5" font-family="Helvetica,sans-Serif" font-size="10.00">train()</text>
<text text-anchor="start" x="4.5" y="-348.5" font-family="Helvetica,sans-Serif" font-size="10.00">+</text>
<text text-anchor="start" x="15.5" y="-348.5" font-family="Helvetica,sans-Serif" font-size="10.00">~Discriminator()</text>
<polygon fill="#666666" stroke="#666666" points="0.5,-583.5 0.5,-583.5 89.5,-583.5 89.5,-583.5 0.5,-583.5"/>
<polygon fill="#666666" stroke="#666666" points="0.5,-508.5 0.5,-508.5 13.5,-508.5 13.5,-508.5 0.5,-508.5"/>
<polygon fill="#666666" stroke="#666666" points="13.5,-508.5 13.5,-508.5 89.5,-508.5 89.5,-508.5 13.5,-508.5"/>
<polygon fill="none" stroke="#666666" points="0,-342 0,-601 89,-601 89,-342 0,-342"/>
</a>
</g>
</g>
<!-- Node3&#45;&gt;Node2 -->
<g id="edge2_Node000002_Node000003" class="edge">
<title>Node3&#45;&gt;Node2</title>
<g id="a_edge2_Node000002_Node000003"><a xlink:title=" ">
<path fill="none" stroke="#63b8ff" d="M52.44,-341.73C54.6,-331.88 57.26,-322.2 60.5,-313 61.35,-310.59 62.36,-308.19 63.49,-305.81"/>
<polygon fill="none" stroke="#63b8ff" points="63.63,-305.56 63.04,-298.37 69.45,-295.06 70.04,-302.25 63.63,-305.56"/>
</a>
</g>
<text text-anchor="middle" x="85" y="-316" font-family="Helvetica,sans-Serif" font-size="10.00" fill="grey"> +elements</text>
</g>
<!-- Node4 -->
<g id="Node000004" class="node">
<title>Node4</title>
<g id="a_Node000004"><a xlink:title=" ">
<polygon fill="white" stroke="transparent" points="188,-496 107,-496 107,-447 188,-447 188,-496"/>
<text text-anchor="start" x="112.5" y="-483.5" font-family="Helvetica,sans-Serif" font-size="10.00">std::vector&lt; T &gt;</text>
<text text-anchor="start" x="146" y="-468.5" font-family="Helvetica,sans-Serif" font-size="10.00"> </text>
<text text-anchor="start" x="146" y="-453.5" font-family="Helvetica,sans-Serif" font-size="10.00"> </text>
<polygon fill="#666666" stroke="#666666" points="107.5,-478.5 107.5,-478.5 188.5,-478.5 188.5,-478.5 107.5,-478.5"/>
<polygon fill="#666666" stroke="#666666" points="107.5,-463.5 107.5,-463.5 188.5,-463.5 188.5,-463.5 107.5,-463.5"/>
<polygon fill="none" stroke="#666666" points="107,-447 107,-496 188,-496 188,-447 107,-447"/>
</a>
</g>
</g>
<!-- Node4&#45;&gt;Node2 -->
<g id="edge3_Node000002_Node000004" class="edge">
<title>Node4&#45;&gt;Node2</title>
<g id="a_edge3_Node000002_Node000004"><a xlink:title=" ">
<path fill="none" stroke="orange" d="M141.92,-436.87C135.95,-404.47 125.19,-354.42 109.5,-313 107.25,-307.05 104.32,-300.88 101.35,-295.16"/>
<polygon fill="orange" stroke="orange" points="138.48,-437.51 143.68,-446.73 145.37,-436.27 138.48,-437.51"/>
</a>
</g>
<text text-anchor="middle" x="154.5" y="-316" font-family="Helvetica,sans-Serif" font-size="10.00" fill="grey"> &lt; Discriminator * &gt;</text>
</g>
<!-- Node5 -->
<g id="Node000005" class="node">
<title>Node5</title>
<g id="a_Node000005"><a xlink:title=" ">
<polygon fill="white" stroke="transparent" points="156,-697 139,-697 139,-648 156,-648 156,-697"/>
<text text-anchor="start" x="144.5" y="-684.5" font-family="Helvetica,sans-Serif" font-size="10.00">T</text>
<text text-anchor="start" x="146" y="-669.5" font-family="Helvetica,sans-Serif" font-size="10.00"> </text>
<text text-anchor="start" x="146" y="-654.5" font-family="Helvetica,sans-Serif" font-size="10.00"> </text>
<polygon fill="#666666" stroke="#666666" points="139.5,-679.5 139.5,-679.5 156.5,-679.5 156.5,-679.5 139.5,-679.5"/>
<polygon fill="#666666" stroke="#666666" points="139.5,-664.5 139.5,-664.5 156.5,-664.5 156.5,-664.5 139.5,-664.5"/>
<polygon fill="none" stroke="#666666" points="139,-648 139,-697 156,-697 156,-648 139,-648"/>
</a>
</g>
</g>
<!-- Node5&#45;&gt;Node4 -->
<g id="edge4_Node000004_Node000005" class="edge">
<title>Node5&#45;&gt;Node4</title>
<g id="a_edge4_Node000004_Node000005"><a xlink:title=" ">
<path fill="none" stroke="#63b8ff" d="M147.5,-647.89C147.5,-613.33 147.5,-548.7 147.5,-508.28"/>
<polygon fill="none" stroke="#63b8ff" points="147.5,-508.08 143.5,-502.08 147.5,-496.08 151.5,-502.08 147.5,-508.08"/>
</a>
</g>
<text text-anchor="middle" x="172" y="-622" font-family="Helvetica,sans-Serif" font-size="10.00" fill="grey"> +elements</text>
</g>
</g>
</svg>

<g id="navigator" transform="translate(0 0)" fill="#404254">
  <rect fill="#f2f5e9" fill-opacity="0.5" stroke="#606060" stroke-width=".5" x="0" y="0" width="60" height="60"/>
  <use id="zoomplus" xlink:href="#zoomPlus" x="17" y="9" onmousedown="handleZoom(evt,'in')"/>
  <use id="zoomminus" xlink:href="#zoomMin" x="42" y="9" onmousedown="handleZoom(evt,'out')"/>
  <use id="reset" xlink:href="#resetDef" x="30" y="36" onmousedown="handleReset()"/>
   <use id="arrowup" xlink:href="#arrowUp" x="0" y="0" onmousedown="handlePan(0,-1)"/>
  <use id="arrowright" xlink:href="#arrowRight" x="0" y="0" onmousedown="handlePan(1,0)"/>
  <use id="arrowdown" xlink:href="#arrowDown" x="0" y="0" onmousedown="handlePan(0,1)"/>
  <use id="arrowleft" xlink:href="#arrowLeft" x="0" y="0" onmousedown="handlePan(-1,0)"/>
</g>
<svg viewBox="0 0 15 15" width="100%" height="30px" preserveAspectRatio="xMaxYMin meet">
 <g id="arrow_out" transform="scale(0.3 0.3)">
  <a xlink:href="classWisard__coll__graph_org.svg" target="_base">
   <rect id="button" ry="5" rx="5" y="6" x="6" height="38" width="38"
        fill="#f2f5e9" fill-opacity="0.5" stroke="#606060" stroke-width="1.0"/>
   <path id="arrow"
     d="M 11.500037,31.436501 C 11.940474,20.09759 22.043105,11.32322 32.158766,21.979434 L 37.068811,17.246167 C 37.068811,17.246167 37.088388,32 37.088388,32 L 22.160133,31.978069 C 22.160133,31.978069 26.997745,27.140456 26.997745,27.140456 C 18.528582,18.264221 13.291696,25.230495 11.500037,31.436501 z"
     style="fill:#404040;"/>
  </a>
 </g>
</svg>

<style type='text/css'>
<![CDATA[
[data-mouse-over-selected='false'] { opacity: 0.7; }
[data-mouse-over-selected='true']  { opacity: 1.0; }
]]>
</style>
<script type="application/ecmascript"><![CDATA[
document.addEventListener('DOMContentLoaded', (event) => {
  highlightEdges();
  highlightAdjacentNodes();
});
]]></script>
</svg>
