<?xml version="1.0" encoding="UTF-8" standalone="no"?>
<!DOCTYPE svg PUBLIC "-//W3C//DTD SVG 1.1//EN"
 "http://www.w3.org/Graphics/SVG/1.1/DTD/svg11.dtd">
<!-- Generated by graphviz version 2.43.0 (0)
 -->
<!-- Title: Discriminator Pages: 1 -->
<svg width="97pt" height="267pt"
 viewBox="0.00 0.00 97.00 267.00" xmlns="http://www.w3.org/2000/svg" xmlns:xlink="http://www.w3.org/1999/xlink">
<g id="graph0" class="graph" transform="scale(1 1) rotate(0) translate(4 263)">
<title>Discriminator</title>
<!-- Node1 -->
<g id="Node000001" class="node">
<title>Node1</title>
<g id="a_Node000001"><a xlink:title="A class to implement a discriminator using bit arrays and pseudo&#45;random mappings.">
<polygon fill="#999999" stroke="transparent" points="89,-259 0,-259 0,0 89,0 89,-259"/>
<text text-anchor="start" x="16" y="-246.5" font-family="Helvetica,sans-Serif" font-size="10.00">Discriminator</text>
<text text-anchor="start" x="6" y="-231.5" font-family="Helvetica,sans-Serif" font-size="10.00">&#45;</text>
<text text-anchor="start" x="15.5" y="-231.5" font-family="Helvetica,sans-Serif" font-size="10.00">entrySize</text>
<text text-anchor="start" x="6" y="-216.5" font-family="Helvetica,sans-Serif" font-size="10.00">&#45;</text>
<text text-anchor="start" x="15.5" y="-216.5" font-family="Helvetica,sans-Serif" font-size="10.00">numRams</text>
<text text-anchor="start" x="6" y="-201.5" font-family="Helvetica,sans-Serif" font-size="10.00">&#45;</text>
<text text-anchor="start" x="15.5" y="-201.5" font-family="Helvetica,sans-Serif" font-size="10.00">rams</text>
<text text-anchor="start" x="6" y="-186.5" font-family="Helvetica,sans-Serif" font-size="10.00">&#45;</text>
<text text-anchor="start" x="15.5" y="-186.5" font-family="Helvetica,sans-Serif" font-size="10.00">tupleSize</text>
<text text-anchor="start" x="6" y="-171.5" font-family="Helvetica,sans-Serif" font-size="10.00">&#45;</text>
<text text-anchor="start" x="15.5" y="-171.5" font-family="Helvetica,sans-Serif" font-size="10.00">tuplesMapping</text>
<text text-anchor="start" x="4.5" y="-156.5" font-family="Helvetica,sans-Serif" font-size="10.00">+</text>
<text text-anchor="start" x="15.5" y="-156.5" font-family="Helvetica,sans-Serif" font-size="10.00">Discriminator()</text>
<text text-anchor="start" x="4.5" y="-141.5" font-family="Helvetica,sans-Serif" font-size="10.00">+</text>
<text text-anchor="start" x="15.5" y="-141.5" font-family="Helvetica,sans-Serif" font-size="10.00">getNumRams()</text>
<text text-anchor="start" x="4.5" y="-126.5" font-family="Helvetica,sans-Serif" font-size="10.00">+</text>
<text text-anchor="start" x="15.5" y="-126.5" font-family="Helvetica,sans-Serif" font-size="10.00">getRamBits()</text>
<text text-anchor="start" x="4.5" y="-111.5" font-family="Helvetica,sans-Serif" font-size="10.00">+</text>
<text text-anchor="start" x="15.5" y="-111.5" font-family="Helvetica,sans-Serif" font-size="10.00">getTupleSize()</text>
<text text-anchor="start" x="4.5" y="-96.5" font-family="Helvetica,sans-Serif" font-size="10.00">+</text>
<text text-anchor="start" x="15.5" y="-96.5" font-family="Helvetica,sans-Serif" font-size="10.00">info()</text>
<text text-anchor="start" x="4.5" y="-81.5" font-family="Helvetica,sans-Serif" font-size="10.00">+</text>
<text text-anchor="start" x="15.5" y="-81.5" font-family="Helvetica,sans-Serif" font-size="10.00">rank()</text>
<text text-anchor="start" x="4.5" y="-66.5" font-family="Helvetica,sans-Serif" font-size="10.00">+</text>
<text text-anchor="start" x="15.5" y="-66.5" font-family="Helvetica,sans-Serif" font-size="10.00">rank()</text>
<text text-anchor="start" x="4.5" y="-51.5" font-family="Helvetica,sans-Serif" font-size="10.00">+</text>
<text text-anchor="start" x="15.5" y="-51.5" font-family="Helvetica,sans-Serif" font-size="10.00">reset()</text>
<text text-anchor="start" x="4.5" y="-36.5" font-family="Helvetica,sans-Serif" font-size="10.00">+</text>
<text text-anchor="start" x="15.5" y="-36.5" font-family="Helvetica,sans-Serif" font-size="10.00">train()</text>
<text text-anchor="start" x="4.5" y="-21.5" font-family="Helvetica,sans-Serif" font-size="10.00">+</text>
<text text-anchor="start" x="15.5" y="-21.5" font-family="Helvetica,sans-Serif" font-size="10.00">train()</text>
<text text-anchor="start" x="4.5" y="-6.5" font-family="Helvetica,sans-Serif" font-size="10.00">+</text>
<text text-anchor="start" x="15.5" y="-6.5" font-family="Helvetica,sans-Serif" font-size="10.00">~Discriminator()</text>
<polygon fill="#666666" stroke="#666666" points="0.5,-241.5 0.5,-241.5 89.5,-241.5 89.5,-241.5 0.5,-241.5"/>
<polygon fill="#666666" stroke="#666666" points="0.5,-166.5 0.5,-166.5 13.5,-166.5 13.5,-166.5 0.5,-166.5"/>
<polygon fill="#666666" stroke="#666666" points="13.5,-166.5 13.5,-166.5 89.5,-166.5 89.5,-166.5 13.5,-166.5"/>
<polygon fill="none" stroke="#666666" points="0,0 0,-259 89,-259 89,0 0,0"/>
</a>
</g>
</g>
</g>
</svg>
