<?xml version="1.0" encoding="UTF-8" standalone="no"?>
<!DOCTYPE svg PUBLIC "-//W3C//DTD SVG 1.1//EN"
 "http://www.w3.org/Graphics/SVG/1.1/DTD/svg11.dtd">
<!-- Generated by graphviz version 2.43.0 (0)
 -->
<!-- Title: RegressionWisard Pages: 1 -->
<svg width="120pt" height="487pt"
 viewBox="0.00 0.00 120.00 487.00" xmlns="http://www.w3.org/2000/svg" xmlns:xlink="http://www.w3.org/1999/xlink">
<g id="graph0" class="graph" transform="scale(1 1) rotate(0) translate(4 483)">
<title>RegressionWisard</title>
<!-- Node1 -->
<g id="Node000001" class="node">
<title>Node1</title>
<g id="a_Node000001"><a xlink:title="Classe para um modelo de regressão utilizando Wisard.">
<polygon fill="#999999" stroke="transparent" points="112,-394 0,-394 0,0 112,0 112,-394"/>
<text text-anchor="start" x="15.5" y="-382" font-family="Helvetica,sans-Serif" font-size="10.00">RegressionWisard</text>
<text text-anchor="start" x="5.5" y="-367" font-family="Helvetica,sans-Serif" font-size="10.00">&#45;</text>
<text text-anchor="start" x="15" y="-367" font-family="Helvetica,sans-Serif" font-size="10.00">addressSize</text>
<text text-anchor="start" x="5.5" y="-352" font-family="Helvetica,sans-Serif" font-size="10.00">&#45;</text>
<text text-anchor="start" x="15" y="-352" font-family="Helvetica,sans-Serif" font-size="10.00">completeAddressing</text>
<text text-anchor="start" x="5.5" y="-337" font-family="Helvetica,sans-Serif" font-size="10.00">&#45;</text>
<text text-anchor="start" x="15" y="-337" font-family="Helvetica,sans-Serif" font-size="10.00">entrySize</text>
<text text-anchor="start" x="5.5" y="-322" font-family="Helvetica,sans-Serif" font-size="10.00">&#45;</text>
<text text-anchor="start" x="15" y="-322" font-family="Helvetica,sans-Serif" font-size="10.00">mapping</text>
<text text-anchor="start" x="5.5" y="-307" font-family="Helvetica,sans-Serif" font-size="10.00">&#45;</text>
<text text-anchor="start" x="15" y="-307" font-family="Helvetica,sans-Serif" font-size="10.00">mean</text>
<text text-anchor="start" x="5.5" y="-292" font-family="Helvetica,sans-Serif" font-size="10.00">&#45;</text>
<text text-anchor="start" x="15" y="-292" font-family="Helvetica,sans-Serif" font-size="10.00">minOne</text>
<text text-anchor="start" x="5.5" y="-277" font-family="Helvetica,sans-Serif" font-size="10.00">&#45;</text>
<text text-anchor="start" x="15" y="-277" font-family="Helvetica,sans-Serif" font-size="10.00">minZero</text>
<text text-anchor="start" x="5.5" y="-262" font-family="Helvetica,sans-Serif" font-size="10.00">&#45;</text>
<text text-anchor="start" x="15" y="-262" font-family="Helvetica,sans-Serif" font-size="10.00">numberOfTrainings</text>
<text text-anchor="start" x="5.5" y="-247" font-family="Helvetica,sans-Serif" font-size="10.00">&#45;</text>
<text text-anchor="start" x="15" y="-247" font-family="Helvetica,sans-Serif" font-size="10.00">orderedMapping</text>
<text text-anchor="start" x="5.5" y="-232" font-family="Helvetica,sans-Serif" font-size="10.00">&#45;</text>
<text text-anchor="start" x="15" y="-232" font-family="Helvetica,sans-Serif" font-size="10.00">rams</text>
<text text-anchor="start" x="5.5" y="-217" font-family="Helvetica,sans-Serif" font-size="10.00">&#45;</text>
<text text-anchor="start" x="15" y="-217" font-family="Helvetica,sans-Serif" font-size="10.00">steps</text>
<text text-anchor="start" x="4" y="-202" font-family="Helvetica,sans-Serif" font-size="10.00">+</text>
<text text-anchor="start" x="15" y="-202" font-family="Helvetica,sans-Serif" font-size="10.00">applyFit()</text>
<text text-anchor="start" x="4" y="-187" font-family="Helvetica,sans-Serif" font-size="10.00">+</text>
<text text-anchor="start" x="15" y="-187" font-family="Helvetica,sans-Serif" font-size="10.00">calculateFit()</text>
<text text-anchor="start" x="4" y="-172" font-family="Helvetica,sans-Serif" font-size="10.00">+</text>
<text text-anchor="start" x="15" y="-172" font-family="Helvetica,sans-Serif" font-size="10.00">predict()</text>
<text text-anchor="start" x="4" y="-157" font-family="Helvetica,sans-Serif" font-size="10.00">+</text>
<text text-anchor="start" x="15" y="-157" font-family="Helvetica,sans-Serif" font-size="10.00">predict()</text>
<text text-anchor="start" x="4" y="-142" font-family="Helvetica,sans-Serif" font-size="10.00">+</text>
<text text-anchor="start" x="15" y="-142" font-family="Helvetica,sans-Serif" font-size="10.00">RegressionWisard()</text>
<text text-anchor="start" x="4" y="-127" font-family="Helvetica,sans-Serif" font-size="10.00">+</text>
<text text-anchor="start" x="15" y="-127" font-family="Helvetica,sans-Serif" font-size="10.00">RegressionWisard()</text>
<text text-anchor="start" x="4" y="-112" font-family="Helvetica,sans-Serif" font-size="10.00">+</text>
<text text-anchor="start" x="15" y="-112" font-family="Helvetica,sans-Serif" font-size="10.00">RegressionWisard()</text>
<text text-anchor="start" x="4" y="-97" font-family="Helvetica,sans-Serif" font-size="10.00">+</text>
<text text-anchor="start" x="15" y="-97" font-family="Helvetica,sans-Serif" font-size="10.00">train()</text>
<text text-anchor="start" x="4" y="-82" font-family="Helvetica,sans-Serif" font-size="10.00">+</text>
<text text-anchor="start" x="15" y="-82" font-family="Helvetica,sans-Serif" font-size="10.00">train()</text>
<text text-anchor="start" x="4" y="-67" font-family="Helvetica,sans-Serif" font-size="10.00">+</text>
<text text-anchor="start" x="15" y="-67" font-family="Helvetica,sans-Serif" font-size="10.00">~RegressionWisard()</text>
<text text-anchor="start" x="4.5" y="-52" font-family="Helvetica,sans-Serif" font-size="10.00">#</text>
<text text-anchor="start" x="15" y="-52" font-family="Helvetica,sans-Serif" font-size="10.00">checkAddressSize()</text>
<text text-anchor="start" x="4.5" y="-37" font-family="Helvetica,sans-Serif" font-size="10.00">#</text>
<text text-anchor="start" x="15" y="-37" font-family="Helvetica,sans-Serif" font-size="10.00">checkEntrySize()</text>
<text text-anchor="start" x="4.5" y="-22" font-family="Helvetica,sans-Serif" font-size="10.00">#</text>
<text text-anchor="start" x="15" y="-22" font-family="Helvetica,sans-Serif" font-size="10.00">checkMinZeroOne()</text>
<text text-anchor="start" x="4.5" y="-7" font-family="Helvetica,sans-Serif" font-size="10.00">#</text>
<text text-anchor="start" x="15" y="-7" font-family="Helvetica,sans-Serif" font-size="10.00">setRAMShuffle()</text>
<polygon fill="#666666" stroke="#666666" points="0,-377 0,-377 112,-377 112,-377 0,-377"/>
<polygon fill="#666666" stroke="#666666" points="0,-212 0,-212 13,-212 13,-212 0,-212"/>
<polygon fill="#666666" stroke="#666666" points="13,-212 13,-212 112,-212 112,-212 13,-212"/>
<polygon fill="none" stroke="#666666" points="0,0 0,-394 112,-394 112,0 0,0"/>
</a>
</g>
</g>
<!-- Node2 -->
<g id="Node000002" class="node">
<title>Node2</title>
<g id="a_Node000002"><a xlink:title=" ">
<polygon fill="white" stroke="transparent" points="99,-479 13,-479 13,-430 99,-430 99,-479"/>
<text text-anchor="start" x="18" y="-466.5" font-family="Helvetica,sans-Serif" font-size="10.00">RegressionModel</text>
<text text-anchor="start" x="54" y="-451.5" font-family="Helvetica,sans-Serif" font-size="10.00"> </text>
<text text-anchor="start" x="54" y="-436.5" font-family="Helvetica,sans-Serif" font-size="10.00"> </text>
<polygon fill="#666666" stroke="#666666" points="13,-461.5 13,-461.5 99,-461.5 99,-461.5 13,-461.5"/>
<polygon fill="#666666" stroke="#666666" points="13,-446.5 13,-446.5 99,-446.5 99,-446.5 13,-446.5"/>
<polygon fill="none" stroke="#666666" points="13,-430 13,-479 99,-479 99,-430 13,-430"/>
</a>
</g>
</g>
<!-- Node2&#45;&gt;Node1 -->
<g id="edge1_Node000001_Node000002" class="edge">
<title>Node2&#45;&gt;Node1</title>
<g id="a_edge1_Node000001_Node000002"><a xlink:title=" ">
<path fill="none" stroke="#63b8ff" d="M56,-419.8C56,-412.15 56,-403.48 56,-394.12"/>
<polygon fill="none" stroke="#63b8ff" points="52.5,-419.92 56,-429.92 59.5,-419.92 52.5,-419.92"/>
</a>
</g>
</g>
</g>
</svg>
