<?xml version="1.0" encoding="UTF-8" standalone="no"?>
<!DOCTYPE svg PUBLIC "-//W3C//DTD SVG 1.1//EN"
 "http://www.w3.org/Graphics/SVG/1.1/DTD/svg11.dtd">
<!-- Generated by graphviz version 2.43.0 (0)
 -->
<!-- Title: RegressionWisard::train Pages: 1 -->
<svg width="695pt" height="82pt"
 viewBox="0.00 0.00 695.00 82.00" xmlns="http://www.w3.org/2000/svg" xmlns:xlink="http://www.w3.org/1999/xlink">
<g id="graph0" class="graph" transform="scale(1 1) rotate(0) translate(4 78)">
<title>RegressionWisard::train</title>
<!-- Node1 -->
<g id="Node000001" class="node">
<title>Node1</title>
<g id="a_Node000001"><a xlink:title="Treina o modelo com um conjunto de dados.">
<polygon fill="#999999" stroke="#666666" points="122,-55 0,-55 0,-36 122,-36 122,-55"/>
<text text-anchor="middle" x="61" y="-43" font-family="Helvetica,sans-Serif" font-size="10.00">RegressionWisard::train</text>
</a>
</g>
</g>
<!-- Node1&#45;&gt;Node1 -->
<g id="edge6_Node000001_Node000001" class="edge">
<title>Node1&#45;&gt;Node1</title>
<g id="a_edge6_Node000001_Node000001"><a xlink:title=" ">
<path fill="none" stroke="#63b8ff" d="M34.49,-55.08C21.59,-63.73 30.43,-73 61,-73 81.54,-73 92.27,-68.82 93.19,-63.45"/>
<polygon fill="#63b8ff" stroke="#63b8ff" points="96.02,-61.39 87.51,-55.08 90.23,-65.32 96.02,-61.39"/>
</a>
</g>
</g>
<!-- Node2 -->
<g id="Node000002" class="node">
<title>Node2</title>
<g id="a_Node000002"><a xlink:href="classRegressionWisard.html#ac37f1d1c653928a21c5d3588c3837c9b" target="_top" xlink:title="Aplica o ajuste calculado.">
<polygon fill="white" stroke="#666666" points="303,-74 166,-74 166,-55 303,-55 303,-74"/>
<text text-anchor="middle" x="234.5" y="-62" font-family="Helvetica,sans-Serif" font-size="10.00">RegressionWisard::applyFit</text>
</a>
</g>
</g>
<!-- Node1&#45;&gt;Node2 -->
<g id="edge1_Node000001_Node000002" class="edge">
<title>Node1&#45;&gt;Node2</title>
<g id="a_edge1_Node000001_Node000002"><a xlink:title=" ">
<path fill="none" stroke="#63b8ff" d="M122.46,-52.2C133.24,-53.39 144.61,-54.65 155.79,-55.89"/>
<polygon fill="#63b8ff" stroke="#63b8ff" points="155.66,-59.4 165.99,-57.02 156.43,-52.44 155.66,-59.4"/>
</a>
</g>
</g>
<!-- Node3 -->
<g id="Node000003" class="node">
<title>Node3</title>
<g id="a_Node000003"><a xlink:href="classRegressionWisard.html#a2f22f241b281ab6a0e4cf1cfb9335bb4" target="_top" xlink:title="Calcula o ajuste para uma entrada binária e um valor y.">
<polygon fill="white" stroke="#666666" points="311,-37 158,-37 158,-18 311,-18 311,-37"/>
<text text-anchor="middle" x="234.5" y="-25" font-family="Helvetica,sans-Serif" font-size="10.00">RegressionWisard::calculateFit</text>
</a>
</g>
</g>
<!-- Node1&#45;&gt;Node3 -->
<g id="edge2_Node000001_Node000003" class="edge">
<title>Node1&#45;&gt;Node3</title>
<g id="a_edge2_Node000001_Node000003"><a xlink:title=" ">
<path fill="none" stroke="#63b8ff" d="M122.46,-39.15C130.71,-38.29 139.3,-37.39 147.89,-36.48"/>
<polygon fill="#63b8ff" stroke="#63b8ff" points="148.37,-39.95 157.95,-35.43 147.64,-32.99 148.37,-39.95"/>
</a>
</g>
</g>
<!-- Node4 -->
<g id="Node000004" class="node">
<title>Node4</title>
<g id="a_Node000004"><a xlink:href="classRegressionWisard.html#ab4d4796e3f62df331fee309301e0a681" target="_top" xlink:title="Faz a predição para uma entrada binária.">
<polygon fill="white" stroke="#666666" points="479,-37 347,-37 347,-18 479,-18 479,-37"/>
<text text-anchor="middle" x="413" y="-25" font-family="Helvetica,sans-Serif" font-size="10.00">RegressionWisard::predict</text>
</a>
</g>
</g>
<!-- Node3&#45;&gt;Node4 -->
<g id="edge3_Node000003_Node000004" class="edge">
<title>Node3&#45;&gt;Node4</title>
<g id="a_edge3_Node000003_Node000004"><a xlink:title=" ">
<path fill="none" stroke="#63b8ff" d="M311.12,-27.5C319.57,-27.5 328.17,-27.5 336.62,-27.5"/>
<polygon fill="#63b8ff" stroke="#63b8ff" points="336.82,-31 346.82,-27.5 336.82,-24 336.82,-31"/>
</a>
</g>
</g>
<!-- Node5 -->
<g id="Node000005" class="node">
<title>Node5</title>
<g id="a_Node000005"><a xlink:href="classMean.html#a6c725db111881910fcf4df655debbbc7" target="_top" xlink:title="Calcula a média com base nos dados fornecidos.">
<polygon fill="white" stroke="#666666" points="644,-56 558,-56 558,-37 644,-37 644,-56"/>
<text text-anchor="middle" x="601" y="-44" font-family="Helvetica,sans-Serif" font-size="10.00">Mean::calculate</text>
</a>
</g>
</g>
<!-- Node4&#45;&gt;Node5 -->
<g id="edge4_Node000004_Node000005" class="edge">
<title>Node4&#45;&gt;Node5</title>
<g id="a_edge4_Node000004_Node000005"><a xlink:title=" ">
<path fill="none" stroke="#63b8ff" d="M479.05,-34.15C501.56,-36.44 526.48,-38.99 547.81,-41.17"/>
<polygon fill="#63b8ff" stroke="#63b8ff" points="547.67,-44.67 557.98,-42.21 548.38,-37.71 547.67,-44.67"/>
</a>
</g>
</g>
<!-- Node6 -->
<g id="Node000006" class="node">
<title>Node6</title>
<g id="a_Node000006"><a xlink:href="classRegressionWisard.html#a6a25655a9cb15452b468a13dc4ed2858" target="_top" xlink:title="Verifica o tamanho da entrada.">
<polygon fill="white" stroke="#666666" points="687,-19 515,-19 515,0 687,0 687,-19"/>
<text text-anchor="middle" x="601" y="-7" font-family="Helvetica,sans-Serif" font-size="10.00">RegressionWisard::checkEntrySize</text>
</a>
</g>
</g>
<!-- Node4&#45;&gt;Node6 -->
<g id="edge5_Node000004_Node000006" class="edge">
<title>Node4&#45;&gt;Node6</title>
<g id="a_edge5_Node000004_Node000006"><a xlink:title=" ">
<path fill="none" stroke="#63b8ff" d="M479.05,-21.2C487.34,-20.4 495.94,-19.57 504.58,-18.73"/>
<polygon fill="#63b8ff" stroke="#63b8ff" points="505.1,-22.2 514.71,-17.75 504.42,-15.23 505.1,-22.2"/>
</a>
</g>
</g>
</g>
</svg>
