<?xml version="1.0" encoding="UTF-8" standalone="no"?>
<!DOCTYPE svg PUBLIC "-//W3C//DTD SVG 1.1//EN"
 "http://www.w3.org/Graphics/SVG/1.1/DTD/svg11.dtd">
<!-- Generated by graphviz version 2.43.0 (0)
 -->
<!-- Title: Representação gráfica da hiearquia da classe Pages: 1 -->
<svg width="168pt" height="138pt"
 viewBox="0.00 0.00 168.00 138.00" xmlns="http://www.w3.org/2000/svg" xmlns:xlink="http://www.w3.org/1999/xlink">
<g id="graph0" class="graph" transform="scale(1 1) rotate(0) translate(4 134)">
<title>Representação gráfica da hiearquia da classe</title>
<!-- Node0 -->
<g id="Node000000" class="node">
<title>Node0</title>
<g id="a_Node000000"><a xlink:href="classMean.html" target="_top" xlink:title="Classe base abstrata para cálculo de médias.">
<polygon fill="white" stroke="#666666" points="41,-74 0,-74 0,-55 41,-55 41,-74"/>
<text text-anchor="middle" x="20.5" y="-62" font-family="Helvetica,sans-Serif" font-size="10.00">Mean</text>
</a>
</g>
</g>
<!-- Node1 -->
<g id="Node000001" class="node">
<title>Node1</title>
<g id="a_Node000001"><a xlink:href="classHarmonicMean.html" target="_top" xlink:title="Classe para cálculo de média harmônica.">
<polygon fill="white" stroke="#666666" points="160,-130 77,-130 77,-111 160,-111 160,-130"/>
<text text-anchor="middle" x="118.5" y="-118" font-family="Helvetica,sans-Serif" font-size="10.00">HarmonicMean</text>
</a>
</g>
</g>
<!-- Node0&#45;&gt;Node1 -->
<g id="edge1_Node000000_Node000001" class="edge">
<title>Node0&#45;&gt;Node1</title>
<g id="a_edge1_Node000000_Node000001"><a xlink:title=" ">
<path fill="none" stroke="#63b8ff" d="M42.53,-80.24C52.67,-87.47 65.17,-95.89 77,-102.5 82.37,-105.5 88.34,-108.38 94.01,-110.93"/>
<polygon fill="#63b8ff" stroke="#63b8ff" points="44.45,-77.31 34.3,-74.26 40.33,-82.97 44.45,-77.31"/>
</a>
</g>
</g>
<!-- Node2 -->
<g id="Node000002" class="node">
<title>Node2</title>
<g id="a_Node000002"><a xlink:href="classMedian.html" target="_top" xlink:title="Classe para cálculo de mediana.">
<polygon fill="white" stroke="#666666" points="142.5,-93 94.5,-93 94.5,-74 142.5,-74 142.5,-93"/>
<text text-anchor="middle" x="118.5" y="-81" font-family="Helvetica,sans-Serif" font-size="10.00">Median</text>
</a>
</g>
</g>
<!-- Node0&#45;&gt;Node2 -->
<g id="edge2_Node000000_Node000002" class="edge">
<title>Node0&#45;&gt;Node2</title>
<g id="a_edge2_Node000000_Node000002"><a xlink:title=" ">
<path fill="none" stroke="#63b8ff" d="M51.4,-70.42C65.22,-73.15 81.37,-76.35 94.25,-78.9"/>
<polygon fill="#63b8ff" stroke="#63b8ff" points="51.88,-66.94 41.39,-68.44 50.52,-73.81 51.88,-66.94"/>
</a>
</g>
</g>
<!-- Node3 -->
<g id="Node000003" class="node">
<title>Node3</title>
<g id="a_Node000003"><a xlink:href="classPowerMean.html" target="_top" xlink:title="Classe para cálculo de média de potência.">
<polygon fill="white" stroke="#666666" points="152.5,-56 84.5,-56 84.5,-37 152.5,-37 152.5,-56"/>
<text text-anchor="middle" x="118.5" y="-44" font-family="Helvetica,sans-Serif" font-size="10.00">PowerMean</text>
</a>
</g>
</g>
<!-- Node0&#45;&gt;Node3 -->
<g id="edge3_Node000000_Node000003" class="edge">
<title>Node0&#45;&gt;Node3</title>
<g id="a_edge3_Node000000_Node000003"><a xlink:title=" ">
<path fill="none" stroke="#63b8ff" d="M51.33,-58.91C61.82,-56.94 73.67,-54.72 84.41,-52.71"/>
<polygon fill="#63b8ff" stroke="#63b8ff" points="50.57,-55.49 41.39,-60.77 51.87,-62.37 50.57,-55.49"/>
</a>
</g>
</g>
<!-- Node4 -->
<g id="Node000004" class="node">
<title>Node4</title>
<g id="a_Node000004"><a xlink:href="classSimpleMean.html" target="_top" xlink:title="Classe para cálculo de média simples.">
<polygon fill="white" stroke="#666666" points="154,-19 83,-19 83,0 154,0 154,-19"/>
<text text-anchor="middle" x="118.5" y="-7" font-family="Helvetica,sans-Serif" font-size="10.00">SimpleMean</text>
</a>
</g>
</g>
<!-- Node0&#45;&gt;Node4 -->
<g id="edge4_Node000000_Node000004" class="edge">
<title>Node0&#45;&gt;Node4</title>
<g id="a_edge4_Node000000_Node000004"><a xlink:title=" ">
<path fill="none" stroke="#63b8ff" d="M43.81,-49.03C53.77,-42.39 65.78,-34.73 77,-28.5 82.97,-25.18 89.63,-21.9 95.79,-19.02"/>
<polygon fill="#63b8ff" stroke="#63b8ff" points="41.64,-46.28 35.32,-54.78 45.56,-52.08 41.64,-46.28"/>
</a>
</g>
</g>
</g>
</svg>
